<?xml version="1.0" encoding="UTF-8" standalone="no"?>
<!-- Created with Inkscape (http://www.inkscape.org/) -->

<svg
   xmlns:dc="http://purl.org/dc/elements/1.1/"
   xmlns:cc="http://creativecommons.org/ns#"
   xmlns:rdf="http://www.w3.org/1999/02/22-rdf-syntax-ns#"
   xmlns:svg="http://www.w3.org/2000/svg"
   xmlns="http://www.w3.org/2000/svg"
   xmlns:sodipodi="http://sodipodi.sourceforge.net/DTD/sodipodi-0.dtd"
   xmlns:inkscape="http://www.inkscape.org/namespaces/inkscape"
   width="793.70081"
   height="1122.5197"
   viewBox="0 0 793.70081 1122.5197"
   version="1.1"
   id="svg8"
   inkscape:version="0.92.4 (5da689c313, 2019-01-14)"
   sodipodi:docname="fake fruit logo.svg">
  <defs
     id="defs2" />
  <sodipodi:namedview
     id="base"
     pagecolor="#ffffff"
     bordercolor="#666666"
     borderopacity="1.0"
     inkscape:pageopacity="0.0"
     inkscape:pageshadow="2"
     inkscape:zoom="1"
     inkscape:cx="169.52856"
     inkscape:cy="946.10885"
     inkscape:document-units="px"
     inkscape:current-layer="layer1"
     showgrid="false"
     units="px"
     showborder="false"
     inkscape:object-paths="true"
     inkscape:snap-intersection-paths="true"
     inkscape:snap-smooth-nodes="true"
     inkscape:snap-nodes="false"
     inkscape:window-width="1920"
     inkscape:window-height="1001"
     inkscape:window-x="2391"
     inkscape:window-y="-9"
     inkscape:window-maximized="1" />
  <metadata
     id="metadata5">
    <rdf:RDF>
      <cc:Work
         rdf:about="">
        <dc:format>image/svg+xml</dc:format>
        <dc:type
           rdf:resource="http://purl.org/dc/dcmitype/StillImage" />
        <dc:title />
      </cc:Work>
    </rdf:RDF>
  </metadata>
  <g
     inkscape:label="Layer 1"
     inkscape:groupmode="layer"
     id="layer1">
    <g
       id="g1228">
      <g
         id="g1147">
        <path
           inkscape:connector-curvature="0"
           id="path1345"
           style="font-style:normal;font-variant:normal;font-weight:normal;font-stretch:normal;font-size:907.08660889px;line-height:1.25;font-family:Oswald;-inkscape-font-specification:Oswald;letter-spacing:0px;word-spacing:0px;fill:#c5221f;fill-opacity:1;stroke:#c5221f;stroke-width:2;stroke-linejoin:round;stroke-miterlimit:4;stroke-dasharray:none;stroke-opacity:1"
           d="M 296.84088,295.74648 V 101.34647 h 75.12 v 19.44 h -48 v 64.8 h 37.2 v 19.2 h -37.2 v 90.96001 z" />
        <path
           inkscape:connector-curvature="0"
           id="path1347"
           style="font-style:normal;font-variant:normal;font-weight:normal;font-stretch:normal;font-size:907.08660889px;line-height:1.25;font-family:Oswald;-inkscape-font-specification:Oswald;letter-spacing:0px;word-spacing:0px;fill:#8838cf;fill-opacity:1;stroke:#8838cf;stroke-width:2;stroke-linejoin:round;stroke-miterlimit:4;stroke-dasharray:none;stroke-opacity:1"
           d="M 390.59089,295.74648 V 101.34647 h 39.11999 c 12.96,0 23.68,1.76 32.16,5.28 8.48,3.36 14.72,8.88 18.72,16.56 4.16,7.52 6.24,17.44 6.24,29.76 0,7.52 -0.8,14.4 -2.4,20.64 -1.6,6.08 -4.16,11.28 -7.68,15.6 -3.52,4.16 -8.16,7.2 -13.92,9.12 l 6.9,24.36 6.9,24.36 c 0,0 4.42513,16.93539 12.55685,30.01686 9.8995,12.72792 38.00902,33.0095 40.63402,37.3845 1,4.75 -1.78038,8.8514 -1.78038,8.8514 0,0 -5.03037,5.6014 -8.53037,5.7264 -5.25,0.625 -42.15468,-26.71422 -53.82195,-45.8061 -9.54594,-15.90991 -14.13817,-33.05306 -14.13817,-33.05306 l -6.36,-22.8 -6.36,-22.8 h -21.12 v 91.20001 z m 27.11999,-110.64001 h 10.32 c 7.68,0 13.92,-0.96 18.72,-2.88 4.8,-1.92 8.32,-5.2 10.56,-9.84 2.24,-4.64 3.36,-11.12 3.36,-19.44 0,-11.36 -2.08,-19.52 -6.24,-24.48 -4.16,-5.12 -12.4,-7.68 -24.72,-7.68 h -12 z"
           sodipodi:nodetypes="ccsccscccccccccccccccccsssscscc" />
        <path
           inkscape:connector-curvature="0"
           id="path1349"
           style="font-style:normal;font-variant:normal;font-weight:normal;font-stretch:normal;font-size:907.08660889px;line-height:1.25;font-family:Oswald;-inkscape-font-specification:Oswald;letter-spacing:0px;word-spacing:0px;fill:#ff6600;fill-opacity:1;stroke:#ff6600;stroke-width:2;stroke-linejoin:round;stroke-miterlimit:4;stroke-dasharray:none;stroke-opacity:1"
           d="m 565.43838,297.90646 q -21.12,0 -32.4,-8.39999 -11.27999,-8.4 -15.35999,-23.52001 -4.08001,-15.35998 -4.08001,-35.75999 v -128.88 h 25.92001 v 130.07999 q 0,12.48 1.68,22.80002 1.68,10.31999 7.2,16.32 5.76001,5.99998 17.03999,5.99998 11.52001,0 17.04001,-5.99998 5.52,-6.00001 7.2,-16.32 1.68,-10.32002 1.68,-22.80002 V 101.34647 h 25.68001 v 128.88 q 0,20.40001 -4.08001,35.75999 -4.08001,15.12001 -15.36002,23.52001 -11.03997,8.39999 -32.15999,8.39999 z" />
        <path
           inkscape:connector-curvature="0"
           id="path1351"
           style="font-style:normal;font-variant:normal;font-weight:normal;font-stretch:normal;font-size:907.08660889px;line-height:1.25;font-family:Oswald;-inkscape-font-specification:Oswald;letter-spacing:0px;word-spacing:0px;fill:#0c401c;fill-opacity:1;stroke:#0c401c;stroke-width:2;stroke-linejoin:round;stroke-miterlimit:4;stroke-dasharray:none;stroke-opacity:1"
           d="M 647.03087,295.74648 V 101.34647 h 26.64 v 194.40001 z" />
        <path
           inkscape:connector-curvature="0"
           id="path1353"
           style="font-style:normal;font-variant:normal;font-weight:normal;font-stretch:normal;font-size:907.08660889px;line-height:1.25;font-family:Oswald;-inkscape-font-specification:Oswald;letter-spacing:0px;word-spacing:0px;fill:#ffff00;fill-opacity:1;stroke:#ffff00;stroke-width:2;stroke-linejoin:round;stroke-miterlimit:10.69999981;stroke-dasharray:none;stroke-opacity:1"
           d="M 726.48213,295.74648 V 121.50647 h -32.88001 v -20.16 h 91.92 v 20.16 h -31.91999 v 174.24001 z" />
        <g
           id="g1149"
           transform="rotate(16.233304,-952.81022,-2348.7417)">
          <path
             inkscape:connector-curvature="0"
             id="path839"
             d="m 979.90057,-318.4668 c 0,0 -6.15012,3.57866 -8.34961,9.81055 -1.11971,3.17252 -0.91217,7.79319 -0.46679,11.66796 0.44537,3.87478 1.1582,6.99415 1.1582,6.99415 l 0.97461,-0.22266 c 0,0 -0.70017,-3.06976 -1.13867,-6.88477 -0.43851,-3.81501 -0.58559,-8.38477 0.41601,-11.22265 2.04315,-5.78893 7.91406,-9.28125 7.91406,-9.28125 z"
             style="color:#000000;font-style:normal;font-variant:normal;font-weight:normal;font-stretch:normal;font-size:medium;line-height:normal;font-family:sans-serif;font-variant-ligatures:normal;font-variant-position:normal;font-variant-caps:normal;font-variant-numeric:normal;font-variant-alternates:normal;font-feature-settings:normal;text-indent:0;text-align:start;text-decoration:none;text-decoration-line:none;text-decoration-style:solid;text-decoration-color:#000000;letter-spacing:normal;word-spacing:normal;text-transform:none;writing-mode:lr-tb;direction:ltr;text-orientation:mixed;dominant-baseline:auto;baseline-shift:baseline;text-anchor:start;white-space:normal;shape-padding:0;clip-rule:nonzero;display:inline;overflow:visible;visibility:visible;opacity:1;isolation:auto;mix-blend-mode:normal;color-interpolation:sRGB;color-interpolation-filters:linearRGB;solid-color:#000000;solid-opacity:1;vector-effect:none;fill:#3ba151;fill-opacity:1;fill-rule:nonzero;stroke:#3eac5c;stroke-width:2;stroke-linecap:butt;stroke-linejoin:miter;stroke-miterlimit:4;stroke-dasharray:none;stroke-dashoffset:0;stroke-opacity:1;color-rendering:auto;image-rendering:auto;shape-rendering:auto;text-rendering:auto;enable-background:accumulate" />
          <circle
             r="17.854446"
             cy="-279.32266"
             cx="976.79614"
             id="path835"
             style="opacity:1;fill:#c5221f;fill-opacity:1;stroke:#000000;stroke-width:1.5;stroke-miterlimit:4;stroke-dasharray:none;stroke-opacity:1" />
          <path
             inkscape:connector-curvature="0"
             id="path843"
             d="m 980.33398,-318.72266 c 0,0 -0.002,0.002 -0.002,0.002 l -0.86133,0.50782 c 0,0 0.0408,0.0634 0.0859,0.11914 0.0451,0.0557 0.11654,0.13884 0.23633,0.27148 0.23957,0.26529 0.67449,0.72793 1.47656,1.54102 1.60414,1.62617 4.67484,4.65352 10.56055,10.27344 11.87651,11.34014 25.35351,13.91796 25.35351,13.91796 l 0.1875,-0.98242 c 0,0 -13.1913,-2.52639 -24.84961,-13.6582 -5.88167,-5.61607 -8.9494,-8.63847 -10.54101,-10.25195 -0.79581,-0.80675 -1.22194,-1.26243 -1.44531,-1.50977 -0.11169,-0.12367 -0.17258,-0.19518 -0.20118,-0.23047 z"
             style="color:#000000;font-style:normal;font-variant:normal;font-weight:normal;font-stretch:normal;font-size:medium;line-height:normal;font-family:sans-serif;font-variant-ligatures:normal;font-variant-position:normal;font-variant-caps:normal;font-variant-numeric:normal;font-variant-alternates:normal;font-feature-settings:normal;text-indent:0;text-align:start;text-decoration:none;text-decoration-line:none;text-decoration-style:solid;text-decoration-color:#000000;letter-spacing:normal;word-spacing:normal;text-transform:none;writing-mode:lr-tb;direction:ltr;text-orientation:mixed;dominant-baseline:auto;baseline-shift:baseline;text-anchor:start;white-space:normal;shape-padding:0;clip-rule:nonzero;display:inline;overflow:visible;visibility:visible;opacity:1;isolation:auto;mix-blend-mode:normal;color-interpolation:sRGB;color-interpolation-filters:linearRGB;solid-color:#000000;solid-opacity:1;vector-effect:none;fill:#000000;fill-opacity:1;fill-rule:nonzero;stroke:#3eac5c;stroke-width:2;stroke-linecap:butt;stroke-linejoin:miter;stroke-miterlimit:4;stroke-dasharray:none;stroke-dashoffset:0;stroke-opacity:1;color-rendering:auto;image-rendering:auto;shape-rendering:auto;text-rendering:auto;enable-background:accumulate" />
          <circle
             style="opacity:1;fill:#c5221f;fill-opacity:1;stroke:#000000;stroke-width:1.5;stroke-miterlimit:4;stroke-dasharray:none;stroke-opacity:1"
             id="circle837"
             cx="1018.5155"
             cy="-281.09042"
             r="17.854446" />
          <path
             inkscape:connector-curvature="0"
             id="path847"
             d="M 981.14063,-319.3241 969.125,-334.73035 c 0,0 -3.625,-4 -6.375,-2.5625 -2.75,1.4375 -0.6875,5.125 -0.6875,5.125 l 4.375,5 c 0,0 1.75,3.375 -0.25,4 -2,0.625 2,1.5625 2,1.5625 0,0 9.53642,4.53664 8.34049,5.72775 -1.19593,1.1911 4.61264,-3.4465 4.61264,-3.4465 z"
             style="fill:#3eac5c;fill-opacity:1;stroke:none;stroke-width:1px;stroke-linecap:butt;stroke-linejoin:miter;stroke-opacity:1" />
          <path
             inkscape:connector-curvature="0"
             id="path849"
             d="m 983.69048,-290.63636 3.88908,3.18198 -2.29809,2.65165 z"
             style="fill:#ffffff;stroke:none;stroke-width:1px;stroke-linecap:butt;stroke-linejoin:miter;stroke-opacity:1" />
          <path
             inkscape:connector-curvature="0"
             id="path851"
             d="m 1026.2937,-291.8738 3.8891,3.88909 -2.2981,2.47487 z"
             style="fill:#ffffff;stroke:none;stroke-width:1px;stroke-linecap:butt;stroke-linejoin:miter;stroke-opacity:1" />
        </g>
        <g
           id="g1133"
           transform="rotate(4.2626106,-4827.4481,-5264.9007)">
          <circle
             style="opacity:1;fill:#8838cf;fill-opacity:1;stroke:#000000;stroke-width:1;stroke-miterlimit:4;stroke-dasharray:none;stroke-opacity:1"
             id="circle864"
             cx="838.20923"
             cy="-206.85019"
             r="9.75" />
          <circle
             r="9.75"
             cy="-221.35019"
             cx="845.70923"
             id="circle866"
             style="opacity:1;fill:#8838cf;fill-opacity:1;stroke:#000000;stroke-width:1;stroke-miterlimit:4;stroke-dasharray:none;stroke-opacity:1" />
          <circle
             style="opacity:1;fill:#8838cf;fill-opacity:1;stroke:#000000;stroke-width:1;stroke-miterlimit:4;stroke-dasharray:none;stroke-opacity:1"
             id="circle868"
             cx="828.70923"
             cy="-221.60019"
             r="9.75" />
          <circle
             r="9.75"
             cy="-235.60019"
             cx="850.70923"
             id="circle870"
             style="opacity:1;fill:#8838cf;fill-opacity:1;stroke:#000000;stroke-width:1;stroke-miterlimit:4;stroke-dasharray:none;stroke-opacity:1" />
          <circle
             style="opacity:1;fill:#8838cf;fill-opacity:1;stroke:#000000;stroke-width:1;stroke-miterlimit:4;stroke-dasharray:none;stroke-opacity:1"
             id="circle872"
             cx="835.95923"
             cy="-236.10019"
             r="9.75" />
          <circle
             r="9.75"
             cy="-235.85019"
             cx="820.70923"
             id="circle874"
             style="opacity:1;fill:#8838cf;fill-opacity:1;stroke:#000000;stroke-width:1;stroke-miterlimit:4;stroke-dasharray:none;stroke-opacity:1" />
          <circle
             style="opacity:1;fill:#8838cf;fill-opacity:1;stroke:#000000;stroke-width:1;stroke-miterlimit:4;stroke-dasharray:none;stroke-opacity:1"
             id="circle876"
             cx="857.45923"
             cy="-249.85019"
             r="9.75" />
          <path
             style="fill:#3eac5c;fill-opacity:1;stroke:none;stroke-width:1px;stroke-linecap:butt;stroke-linejoin:miter;stroke-opacity:1"
             d="m 837.92081,-256.63033 -1.85378,-24.01336 c 0,0 -0.90746,-6.56998 -3.99912,-6.89787 -3.09167,-0.32788 -3.33397,4.88002 -3.33397,4.88002 l 1.00256,8.10881 c 0,0 -0.33791,4.67518 -2.36044,3.99895 -2.02253,-0.67624 0.84697,2.95387 0.84697,2.95387 0,0 5.60433,11.05094 3.95567,11.49763 -1.64866,0.44668 5.74211,-0.52804 5.74211,-0.52805 z"
             id="path911"
             inkscape:connector-curvature="0" />
          <circle
             r="9.75"
             cy="-251.60019"
             cx="844.45923"
             id="circle878"
             style="opacity:1;fill:#8838cf;fill-opacity:1;stroke:#000000;stroke-width:1;stroke-miterlimit:4;stroke-dasharray:none;stroke-opacity:1" />
          <circle
             style="opacity:1;fill:#8838cf;fill-opacity:1;stroke:#000000;stroke-width:1;stroke-miterlimit:4;stroke-dasharray:none;stroke-opacity:1"
             id="circle880"
             cx="829.20923"
             cy="-250.85019"
             r="9.75" />
          <circle
             r="9.75"
             cy="-246.85019"
             cx="812.95923"
             id="circle882"
             style="opacity:1;fill:#8838cf;fill-opacity:1;stroke:#000000;stroke-width:1;stroke-miterlimit:4;stroke-dasharray:none;stroke-opacity:1" />
          <path
             inkscape:connector-curvature="0"
             id="path884"
             d="m 812.9592,-254.10019 4.25,2.5 -2.5,1.25 z"
             style="fill:#ffffff;stroke:none;stroke-width:1px;stroke-linecap:butt;stroke-linejoin:miter;stroke-opacity:1" />
          <path
             style="fill:#ffffff;stroke:none;stroke-width:1px;stroke-linecap:butt;stroke-linejoin:miter;stroke-opacity:1"
             d="m 848.2092,-224.35019 4.25,2.5 -2.5,1.25 z"
             id="path886"
             inkscape:connector-curvature="0" />
          <path
             inkscape:connector-curvature="0"
             id="path888"
             d="m 831.2092,-224.60019 4.25,2.5 -2.5,1.25 z"
             style="fill:#ffffff;stroke:none;stroke-width:1px;stroke-linecap:butt;stroke-linejoin:miter;stroke-opacity:1" />
          <path
             style="fill:#ffffff;stroke:none;stroke-width:1px;stroke-linecap:butt;stroke-linejoin:miter;stroke-opacity:1"
             d="m 852.7092,-238.60019 4.25,2.5 -2.5,1.25 z"
             id="path890"
             inkscape:connector-curvature="0" />
          <path
             inkscape:connector-curvature="0"
             id="path892"
             d="m 838.7092,-241.10019 4.25,2.5 -2.5,1.25 z"
             style="fill:#ffffff;stroke:none;stroke-width:1px;stroke-linecap:butt;stroke-linejoin:miter;stroke-opacity:1" />
          <path
             style="fill:#ffffff;stroke:none;stroke-width:1px;stroke-linecap:butt;stroke-linejoin:miter;stroke-opacity:1"
             d="m 822.4592,-239.10019 4.25,2.5 -2.5,1.25 z"
             id="path894"
             inkscape:connector-curvature="0" />
          <path
             inkscape:connector-curvature="0"
             id="path896"
             d="m 860.7092,-255.60019 4.25,2.5 -2.5,1.25 z"
             style="fill:#ffffff;stroke:none;stroke-width:1px;stroke-linecap:butt;stroke-linejoin:miter;stroke-opacity:1" />
          <path
             style="fill:#ffffff;stroke:none;stroke-width:1px;stroke-linecap:butt;stroke-linejoin:miter;stroke-opacity:1"
             d="m 846.4592,-258.35019 4.25,2.5 -2.5,1.25 z"
             id="path898"
             inkscape:connector-curvature="0" />
          <path
             inkscape:connector-curvature="0"
             id="path900"
             d="m 829.9592,-258.35019 4.25,2.5 -2.5,1.25 z"
             style="fill:#ffffff;stroke:none;stroke-width:1px;stroke-linecap:butt;stroke-linejoin:miter;stroke-opacity:1" />
          <path
             style="fill:#ffffff;stroke:none;stroke-width:1px;stroke-linecap:butt;stroke-linejoin:miter;stroke-opacity:1"
             d="m 840.7092,-209.60019 4.25,2.5 -2.5,1.25 z"
             id="path902"
             inkscape:connector-curvature="0" />
        </g>
        <g
           id="g1187"
           transform="translate(-178.55801,531.1605)">
          <ellipse
             ry="36.76955"
             rx="41.012192"
             cy="-269.77359"
             cx="743.8764"
             id="path945"
             style="opacity:1;fill:#ff6600;fill-opacity:1;stroke:none;stroke-width:3;stroke-miterlimit:4;stroke-dasharray:none;stroke-opacity:1" />
          <ellipse
             ry="2.5250001"
             rx="7.2749996"
             cy="-302.25363"
             cx="743.8764"
             id="path949"
             style="opacity:1;fill:#ff6600;fill-opacity:1;stroke:#ffffff;stroke-width:2;stroke-miterlimit:4;stroke-dasharray:none;stroke-opacity:1" />
          <ellipse
             style="opacity:1;fill:none;fill-opacity:1;stroke:#000000;stroke-width:1.5;stroke-miterlimit:4;stroke-dasharray:none;stroke-opacity:1"
             id="ellipse947"
             cx="743.8764"
             cy="-269.77359"
             rx="41.012192"
             ry="36.76955" />
          <circle
             r="1"
             style="opacity:1;fill:#ffffff;fill-opacity:1;stroke:none;stroke-width:3;stroke-miterlimit:4;stroke-dasharray:none;stroke-opacity:1"
             id="circle973"
             cx="722.66046"
             cy="-289.97864" />
          <circle
             cy="-247.72865"
             cx="761.16046"
             id="circle1005"
             style="opacity:1;fill:#ffffff;fill-opacity:1;stroke:none;stroke-width:3;stroke-miterlimit:4;stroke-dasharray:none;stroke-opacity:1"
             r="1" />
          <circle
             r="1"
             style="opacity:1;fill:#ffffff;fill-opacity:1;stroke:none;stroke-width:3;stroke-miterlimit:4;stroke-dasharray:none;stroke-opacity:1"
             id="circle1007"
             cx="743.41046"
             cy="-244.97865" />
          <circle
             cy="-250.22865"
             cx="726.16046"
             id="circle1009"
             style="opacity:1;fill:#ffffff;fill-opacity:1;stroke:none;stroke-width:3;stroke-miterlimit:4;stroke-dasharray:none;stroke-opacity:1"
             r="1" />
          <circle
             r="1"
             style="opacity:1;fill:#ffffff;fill-opacity:1;stroke:none;stroke-width:3;stroke-miterlimit:4;stroke-dasharray:none;stroke-opacity:1"
             id="circle1011"
             cx="768.91046"
             cy="-261.72864" />
          <circle
             cy="-259.97864"
             cx="752.16046"
             id="circle1013"
             style="opacity:1;fill:#ffffff;fill-opacity:1;stroke:none;stroke-width:3;stroke-miterlimit:4;stroke-dasharray:none;stroke-opacity:1"
             r="1" />
          <circle
             r="1"
             style="opacity:1;fill:#ffffff;fill-opacity:1;stroke:none;stroke-width:3;stroke-miterlimit:4;stroke-dasharray:none;stroke-opacity:1"
             id="circle1015"
             cx="737.16046"
             cy="-259.22864" />
          <circle
             cy="-264.47864"
             cx="716.16046"
             id="circle1017"
             style="opacity:1;fill:#ffffff;fill-opacity:1;stroke:none;stroke-width:3;stroke-miterlimit:4;stroke-dasharray:none;stroke-opacity:1"
             r="1" />
          <circle
             r="1"
             style="opacity:1;fill:#ffffff;fill-opacity:1;stroke:none;stroke-width:3;stroke-miterlimit:4;stroke-dasharray:none;stroke-opacity:1"
             id="circle1019"
             cx="772.66046"
             cy="-278.22864" />
          <circle
             cy="-273.72864"
             cx="757.16046"
             id="circle1021"
             style="opacity:1;fill:#ffffff;fill-opacity:1;stroke:none;stroke-width:3;stroke-miterlimit:4;stroke-dasharray:none;stroke-opacity:1"
             r="1" />
          <circle
             r="1"
             style="opacity:1;fill:#ffffff;fill-opacity:1;stroke:none;stroke-width:3;stroke-miterlimit:4;stroke-dasharray:none;stroke-opacity:1"
             id="circle1023"
             cx="729.91046"
             cy="-272.47864" />
          <circle
             cy="-286.47864"
             cx="734.91046"
             id="circle1025"
             style="opacity:1;fill:#ffffff;fill-opacity:1;stroke:none;stroke-width:3;stroke-miterlimit:4;stroke-dasharray:none;stroke-opacity:1"
             r="1" />
          <circle
             r="1"
             style="opacity:1;fill:#ffffff;fill-opacity:1;stroke:none;stroke-width:3;stroke-miterlimit:4;stroke-dasharray:none;stroke-opacity:1"
             id="circle1027"
             cx="713.41046"
             cy="-280.47864" />
          <circle
             cy="-284.97864"
             cx="751.41046"
             id="circle1029"
             style="opacity:1;fill:#ffffff;fill-opacity:1;stroke:none;stroke-width:3;stroke-miterlimit:4;stroke-dasharray:none;stroke-opacity:1"
             r="1" />
          <circle
             r="1"
             style="opacity:1;fill:#ffffff;fill-opacity:1;stroke:none;stroke-width:3;stroke-miterlimit:4;stroke-dasharray:none;stroke-opacity:1"
             id="circle1031"
             cx="766.41046"
             cy="-291.22864" />
        </g>
        <g
           id="g1752">
          <path
             sodipodi:nodetypes="cccccsccccccc"
             inkscape:connector-curvature="0"
             id="path1189"
             d="m 668.4009,244.94018 c -3.35699,-0.11112 -6.78128,0.16273 -10.15816,0.81218 -15.64197,3.01969 -27.80517,13.53096 -29.371,25.38203 -4.09979,1.94554 -5.8081,3.00995 -6.4064,5.14215 -0.96029,3.4223 1.50962,7.52965 1.50962,7.52965 0,0 1.78279,4.9271 5.76114,5.064 2.22408,0.0765 2.45452,-0.25706 5.72282,-0.69496 7.34643,6.64682 19.43564,9.31892 31.6203,6.98906 18.61428,-3.57857 31.726,-17.54058 29.28613,-31.18532 -0.0682,-0.34087 -0.14598,-0.67973 -0.23342,-1.01637 2.33597,-4.08944 2.15428,-6.0395 2.33378,-8.72639 0.20518,-3.07122 -5.99116,-4.85715 -10.93076,-3.3536 -5.06517,-3.59904 -11.78832,-5.68706 -19.13405,-5.94243 z"
             style="opacity:1;fill:#0c401c;fill-opacity:1;stroke:#000000;stroke-width:1.5;stroke-miterlimit:4;stroke-dasharray:none;stroke-opacity:1" />
          <ellipse
             ry="0.73295534"
             rx="0.7297371"
             style="opacity:1;fill:#000000;fill-opacity:1;stroke:none;stroke-width:1.50000012;stroke-miterlimit:4;stroke-dasharray:none;stroke-opacity:1"
             id="circle1228"
             cx="678.88257"
             cy="253.27071" />
          <ellipse
             ry="0.73295534"
             rx="0.7297371"
             cy="278.00793"
             cx="665.20001"
             id="circle1280"
             style="opacity:1;fill:#000000;fill-opacity:1;stroke:none;stroke-width:1.50000012;stroke-miterlimit:4;stroke-dasharray:none;stroke-opacity:1" />
          <ellipse
             ry="0.73295534"
             rx="0.7297371"
             style="opacity:1;fill:#000000;fill-opacity:1;stroke:none;stroke-width:1.50000012;stroke-miterlimit:4;stroke-dasharray:none;stroke-opacity:1"
             id="circle1282"
             cx="659.17963"
             cy="263.44046" />
          <ellipse
             ry="0.73295534"
             rx="0.7297371"
             cy="284.23807"
             cx="675.87238"
             id="circle1284"
             style="opacity:1;fill:#000000;fill-opacity:1;stroke:none;stroke-width:1.50000012;stroke-miterlimit:4;stroke-dasharray:none;stroke-opacity:1" />
          <ellipse
             ry="0.73295534"
             rx="0.7297371"
             style="opacity:1;fill:#000000;fill-opacity:1;stroke:none;stroke-width:1.50000012;stroke-miterlimit:4;stroke-dasharray:none;stroke-opacity:1"
             id="circle1286"
             cx="664.47028"
             cy="251.25508" />
          <ellipse
             ry="0.73295534"
             rx="0.7297371"
             cy="266.83038"
             cx="674.50415"
             id="circle1288"
             style="opacity:1;fill:#000000;fill-opacity:1;stroke:none;stroke-width:1.50000012;stroke-miterlimit:4;stroke-dasharray:none;stroke-opacity:1" />
          <ellipse
             ry="0.73295534"
             rx="0.7297371"
             style="opacity:1;fill:#000000;fill-opacity:1;stroke:none;stroke-width:1.50000012;stroke-miterlimit:4;stroke-dasharray:none;stroke-opacity:1"
             id="circle1290"
             cx="687.18329"
             cy="271.68622" />
          <ellipse
             ry="0.73295534"
             rx="0.7297371"
             style="opacity:1;fill:#000000;fill-opacity:1;stroke:none;stroke-width:1.50000012;stroke-miterlimit:4;stroke-dasharray:none;stroke-opacity:1"
             id="circle1294"
             cx="643.21667"
             cy="284.78778" />
          <ellipse
             ry="0.73295534"
             rx="0.7297371"
             cy="268.66278"
             cx="637.74365"
             id="circle1296"
             style="opacity:1;fill:#000000;fill-opacity:1;stroke:none;stroke-width:1.50000012;stroke-miterlimit:4;stroke-dasharray:none;stroke-opacity:1" />
          <ellipse
             ry="0.73295534"
             rx="0.7297371"
             style="opacity:1;fill:#000000;fill-opacity:1;stroke:none;stroke-width:1.50000012;stroke-miterlimit:4;stroke-dasharray:none;stroke-opacity:1"
             id="circle1298"
             cx="651.06134"
             cy="273.70184" />
          <ellipse
             ry="0.73295534"
             rx="0.7297371"
             cy="289.73523"
             cx="656.16949"
             id="circle1300"
             style="opacity:1;fill:#000000;fill-opacity:1;stroke:none;stroke-width:1.50000012;stroke-miterlimit:4;stroke-dasharray:none;stroke-opacity:1" />
          <ellipse
             ry="0.73295534"
             rx="0.7297371"
             style="opacity:1;fill:#000000;fill-opacity:1;stroke:none;stroke-width:1.50000012;stroke-miterlimit:4;stroke-dasharray:none;stroke-opacity:1"
             id="circle1302"
             cx="645.77075"
             cy="257.66843" />
        </g>
        <g
           id="g1762">
          <path
             sodipodi:nodetypes="ccsccsc"
             inkscape:connector-curvature="0"
             id="path1321"
             d="m 714.56774,293.9823 -0.50823,-9.10265 c 0,0 30.71139,-4.70442 43.92703,-22.39012 12.72039,-17.02296 11.80962,-49.55038 11.80962,-49.55038 l 6.56686,0.86518 c 0,0 11.66213,49.26778 -5.83245,67.51101 -16.76862,17.48619 -55.96283,12.66696 -55.96283,12.66696 z"
             style="fill:#ffff00;fill-opacity:1;stroke:#000000;stroke-width:0.99999994px;stroke-linecap:butt;stroke-linejoin:miter;stroke-opacity:1" />
          <path
             sodipodi:nodetypes="csc"
             inkscape:connector-curvature="0"
             id="path1325"
             d="m 717.21396,289.48828 c 0,0 29.26776,2.24113 45.74339,-14.6197 13.82411,-14.1473 10.59641,-57.86882 10.59641,-57.86882"
             style="fill:none;stroke:#71716c;stroke-width:0.99999994px;stroke-linecap:butt;stroke-linejoin:miter;stroke-opacity:1" />
          <path
             inkscape:connector-curvature="0"
             id="path1327"
             d="m 714.64493,293.84137 -4.34664,-0.45521 -0.2259,-8.63222 4.01332,0.21817 z"
             style="fill:#000000;stroke:#000000;stroke-width:0.99999994px;stroke-linecap:butt;stroke-linejoin:miter;stroke-opacity:1" />
          <path
             sodipodi:nodetypes="ccccc"
             inkscape:connector-curvature="0"
             id="path1329"
             d="m 769.78707,213.72935 -0.0484,-1.44529 6.3557,-0.047 0.22646,1.47303 z"
             style="fill:#000000;stroke:#000000;stroke-width:0.99999994px;stroke-linecap:butt;stroke-linejoin:miter;stroke-opacity:1" />
        </g>
      </g>
      <g
         transform="translate(16)"
         id="g1072">
        <path
           inkscape:connector-curvature="0"
           id="path1055"
           style="font-style:normal;font-variant:normal;font-weight:normal;font-stretch:normal;font-size:226.66667175px;line-height:1.25;font-family:'Segoe Print';-inkscape-font-specification:'Segoe Print';letter-spacing:0px;word-spacing:0px;fill:#000000;fill-opacity:1;stroke:none"
           d="m -169.44402,151.98085 q -2.10286,3.76302 -6.08724,24.23828 -3.98437,20.36459 -3.98437,34.19922 7.63671,-1.21745 15.71614,-2.10286 l 23.24219,-2.65625 q 5.53385,-0.77474 15.49479,-3.43099 10.07162,-2.65625 13.72396,-2.65625 13.0599,0 13.0599,10.625 0,2.10286 -3.76302,5.3125 -3.65235,3.20963 -9.85026,4.53776 -6.08724,1.32812 -29.55079,3.8737 -28.77604,3.32031 -34.19922,5.09114 -5.3125,1.66016 -6.30859,3.43099 -0.99609,1.66016 -2.10286,16.04818 -1.10678,14.27734 -1.10678,23.24219 l 0.44271,13.72396 q 0,11.28906 -8.1901,11.28906 -5.09115,0 -9.40755,-3.8737 -4.31641,-3.8737 -4.31641,-10.40364 0,-25.67709 12.61719,-108.24219 2.98828,-19.25782 2.98828,-20.69662 0,-2.10286 -1.32813,-6.41927 -1.77083,-5.42318 -1.77083,-7.52604 0,-2.98828 3.32031,-6.41927 3.32032,-3.54167 6.3086,-3.54167 l 14.60937,1.66016 q 6.7513,0 25.1237,-2.21355 31.21094,-3.76302 42.83203,-3.76302 10.1823,0 14.60938,3.09896 4.42708,3.09896 4.42708,6.08724 0,5.3125 -3.65234,9.1862 -3.54167,3.76302 -7.63672,3.76302 -1.88151,0 -4.09505,-0.44271 -12.06381,-1.99219 -18.3724,-1.99219 -11.84245,0 -30.76823,2.21355 -18.8151,2.10286 -22.02474,4.75911 z" />
        <path
           inkscape:connector-curvature="0"
           id="path1057"
           style="font-style:normal;font-variant:normal;font-weight:normal;font-stretch:normal;font-size:226.66667175px;line-height:1.25;font-family:'Segoe Print';-inkscape-font-specification:'Segoe Print';letter-spacing:0px;word-spacing:0px;fill:#000000;fill-opacity:1;stroke:none"
           d="m -23.03385,246.60976 q -15.49479,20.80729 -30.65755,31.21094 -15.16276,10.40364 -27.77995,10.40364 -8.52214,0 -14.72005,-7.19401 -6.19792,-7.19401 -6.19792,-18.48307 0,-29.10807 26.00912,-62.64323 26.00911,-33.64583 51.6862,-33.64583 9.296869,0 13.834629,10.625 1.4388003,3.54166 4.5377602,3.54166 8.8541704,0 8.8541704,6.86198 0,3.43099 -1.10677,9.40755 -5.9765604,32.64974 -5.9765604,46.04167 0,26.78386 10.1822904,32.09636 4.8697904,2.65625 4.8697904,6.52994 0,3.43099 -4.7591204,6.86198 -4.7591104,3.54167 -9.1861904,3.54167 -8.5221402,0 -14.0559902,-11.73177 -5.533859,-11.73177 -5.533859,-33.42448 z m -6.7513,-62.3112 q -14.60938,0 -33.97787,27.44792 -19.36849,27.33724 -19.36849,45.3776 0,12.72787 8.41146,12.72787 12.17448,0 33.75651,-24.57032 21.58204,-24.57031 21.58204,-45.15625 0,-15.82682 -10.40365,-15.82682 z" />
        <path
           inkscape:connector-curvature="0"
           id="path1059"
           style="font-style:normal;font-variant:normal;font-weight:normal;font-stretch:normal;font-size:226.66667175px;line-height:1.25;font-family:'Segoe Print';-inkscape-font-specification:'Segoe Print';letter-spacing:0px;word-spacing:0px;fill:#000000;fill-opacity:1;stroke:none"
           d="m 41.023455,235.21002 q 1.438802,-1.88151 19.811198,-17.81901 17.376303,-15.16276 24.238282,-22.02474 25.566405,-25.56641 36.744795,-25.56641 8.63281,0 8.63281,8.30078 0,9.40756 -8.52213,13.83464 -11.06771,5.64453 -29.550787,18.8151 -18.483073,13.0599 -18.483073,18.48308 0,2.21354 13.059896,16.60156 13.059894,14.27734 22.578124,21.13932 9.51824,6.75131 18.48308,6.75131 l 3.65234,-0.11068 q 3.8737,-0.22136 3.8737,3.43099 0,4.86979 -6.08724,9.85026 -6.08724,5.09114 -16.04818,5.09114 -6.41927,0 -13.0599,-4.53776 -6.529945,-4.42708 -23.352862,-24.1276 -13.391927,-16.26953 -16.71224,-19.36849 -3.320313,-3.20964 -5.533854,-3.20964 -1.217448,0 -7.747396,5.75521 -6.529948,5.75521 -7.194011,8.74349 -0.553385,2.98828 -0.553385,22.79948 v 5.20183 q 0,4.09505 -3.873698,7.30468 -3.873698,3.20964 -8.411459,3.20964 -4.648437,0 -7.304687,-2.76693 -2.656251,-2.65625 -2.656251,-5.53385 0,-3.98438 2.988282,-18.81511 4.205729,-21.36068 7.747396,-57.22005 8.190104,-84.66797 12.617188,-95.73568 4.427083,-11.17839 12.617187,-11.17839 2.877605,0 4.759115,3.09896 1.992188,3.09896 1.992188,7.96875 0,8.85417 -7.636719,47.03776 -7.636719,38.29428 -11.067709,74.59636 z" />
        <path
           inkscape:connector-curvature="0"
           id="path1061"
           style="font-style:normal;font-variant:normal;font-weight:normal;font-stretch:normal;font-size:226.66667175px;line-height:1.25;font-family:'Segoe Print';-inkscape-font-specification:'Segoe Print';letter-spacing:0px;word-spacing:0px;fill:#000000;fill-opacity:1;stroke:none"
           d="m 235.43883,249.37669 q 0,11.28906 -20.03255,27.22656 -19.92187,15.9375 -41.17187,15.9375 -17.81901,0 -27.5586,-10.51432 -9.6289,-10.51433 -9.6289,-29.32943 0,-31.65365 21.36067,-60.20834 21.36068,-28.55468 46.70573,-28.55468 8.30078,0 13.50261,5.42317 5.3125,5.42318 5.3125,13.0599 0,17.04427 -16.71224,32.64974 -16.71224,15.60547 -44.71355,30.65755 -5.7552,2.98828 -5.7552,7.7474 0,9.1862 5.3125,14.72005 5.3125,5.53386 15.71614,5.53386 23.79558,0 48.58724,-26.34115 3.65235,-3.65234 5.53386,-3.65234 3.54166,0 3.54166,5.64453 z m -76.92057,-17.26563 q 46.92708,-27.89062 46.92708,-44.82422 0,-6.64062 -5.97656,-6.64062 -10.18229,0 -23.02083,14.9414 -12.72787,14.94141 -17.92969,36.52344 z" />
      </g>
    </g>
  </g>
</svg>
