<?xml version="1.0" encoding="UTF-8" standalone="no"?>
<!-- Created with Inkscape (http://www.inkscape.org/) -->

<svg
   xmlns:dc="http://purl.org/dc/elements/1.1/"
   xmlns:cc="http://creativecommons.org/ns#"
   xmlns:rdf="http://www.w3.org/1999/02/22-rdf-syntax-ns#"
   xmlns:svg="http://www.w3.org/2000/svg"
   xmlns="http://www.w3.org/2000/svg"
   xmlns:sodipodi="http://sodipodi.sourceforge.net/DTD/sodipodi-0.dtd"
   xmlns:inkscape="http://www.inkscape.org/namespaces/inkscape"
   width="793.70081"
   height="1122.5197"
   viewBox="0 0 793.70081 1122.5197"
   version="1.1"
   id="svg8"
   inkscape:version="0.92.4 (5da689c313, 2019-01-14)"
   sodipodi:docname="Fruit Store Logo.svg">
  <defs
     id="defs2" />
  <sodipodi:namedview
     id="base"
     pagecolor="#ffffff"
     bordercolor="#666666"
     borderopacity="1.0"
     inkscape:pageopacity="0.0"
     inkscape:pageshadow="2"
     inkscape:zoom="1"
     inkscape:cx="336.52856"
     inkscape:cy="946.10885"
     inkscape:document-units="px"
     inkscape:current-layer="layer1"
     showgrid="false"
     units="px"
     showborder="false"
     inkscape:object-paths="true"
     inkscape:snap-intersection-paths="true"
     inkscape:snap-smooth-nodes="true"
     inkscape:snap-nodes="false"
     inkscape:window-width="1920"
     inkscape:window-height="1001"
     inkscape:window-x="-9"
     inkscape:window-y="-9"
     inkscape:window-maximized="1" />
  <metadata
     id="metadata5">
    <rdf:RDF>
      <cc:Work
         rdf:about="">
        <dc:format>image/svg+xml</dc:format>
        <dc:type
           rdf:resource="http://purl.org/dc/dcmitype/StillImage" />
        <dc:title></dc:title>
      </cc:Work>
    </rdf:RDF>
  </metadata>
  <g
     inkscape:label="Layer 1"
     inkscape:groupmode="layer"
     id="layer1">
    <g
       id="g2405"
       inkscape:export-xdpi="300"
       inkscape:export-ydpi="300">
      <g
         id="g2324">
        <path
           inkscape:connector-curvature="0"
           id="path1345"
           style="font-style:normal;font-variant:normal;font-weight:normal;font-stretch:normal;font-size:907.08660889px;line-height:1.25;font-family:Oswald;-inkscape-font-specification:Oswald;letter-spacing:0px;word-spacing:0px;fill:#c5221f;fill-opacity:1;stroke:#c5221f;stroke-width:2;stroke-linejoin:round;stroke-miterlimit:4;stroke-dasharray:none;stroke-opacity:1"
           d="M 296.84088,295.74648 V 101.34647 h 75.12 v 19.44 h -48 v 64.8 h 37.2 v 19.2 h -37.2 v 90.96001 z" />
        <path
           inkscape:connector-curvature="0"
           id="path1347"
           style="font-style:normal;font-variant:normal;font-weight:normal;font-stretch:normal;font-size:907.08660889px;line-height:1.25;font-family:Oswald;-inkscape-font-specification:Oswald;letter-spacing:0px;word-spacing:0px;fill:#8838cf;fill-opacity:1;stroke:#8838cf;stroke-width:2;stroke-linejoin:round;stroke-miterlimit:4;stroke-dasharray:none;stroke-opacity:1"
           d="M 390.59089,295.74648 V 101.34647 h 39.11999 c 12.96,0 23.68,1.76 32.16,5.28 8.48,3.36 14.72,8.88 18.72,16.56 4.16,7.52 6.24,17.44 6.24,29.76 0,7.52 -0.8,14.4 -2.4,20.64 -1.6,6.08 -4.16,11.28 -7.68,15.6 -3.52,4.16 -8.16,7.2 -13.92,9.12 l 6.9,24.36 6.9,24.36 c 0,0 4.42513,16.93539 12.55685,30.01686 9.8995,12.72792 38.00902,33.0095 40.63402,37.3845 1,4.75 -1.78038,8.8514 -1.78038,8.8514 0,0 -5.03037,5.6014 -8.53037,5.7264 -5.25,0.625 -42.15468,-26.71422 -53.82195,-45.8061 -9.54594,-15.90991 -14.13817,-33.05306 -14.13817,-33.05306 l -6.36,-22.8 -6.36,-22.8 h -21.12 v 91.20001 z m 27.11999,-110.64001 h 10.32 c 7.68,0 13.92,-0.96 18.72,-2.88 4.8,-1.92 8.32,-5.2 10.56,-9.84 2.24,-4.64 3.36,-11.12 3.36,-19.44 0,-11.36 -2.08,-19.52 -6.24,-24.48 -4.16,-5.12 -12.4,-7.68 -24.72,-7.68 h -12 z"
           sodipodi:nodetypes="ccsccscccccccccccccccccsssscscc" />
        <path
           inkscape:connector-curvature="0"
           id="path1349"
           style="font-style:normal;font-variant:normal;font-weight:normal;font-stretch:normal;font-size:907.08660889px;line-height:1.25;font-family:Oswald;-inkscape-font-specification:Oswald;letter-spacing:0px;word-spacing:0px;fill:#ff6600;fill-opacity:1;stroke:#ff6600;stroke-width:2;stroke-linejoin:round;stroke-miterlimit:4;stroke-dasharray:none;stroke-opacity:1"
           d="m 565.43838,297.90646 q -21.12,0 -32.4,-8.39999 -11.27999,-8.4 -15.35999,-23.52001 -4.08001,-15.35998 -4.08001,-35.75999 v -128.88 h 25.92001 v 130.07999 q 0,12.48 1.68,22.80002 1.68,10.31999 7.2,16.32 5.76001,5.99998 17.03999,5.99998 11.52001,0 17.04001,-5.99998 5.52,-6.00001 7.2,-16.32 1.68,-10.32002 1.68,-22.80002 V 101.34647 h 25.68001 v 128.88 q 0,20.40001 -4.08001,35.75999 -4.08001,15.12001 -15.36002,23.52001 -11.03997,8.39999 -32.15999,8.39999 z" />
        <path
           inkscape:connector-curvature="0"
           id="path1351"
           style="font-style:normal;font-variant:normal;font-weight:normal;font-stretch:normal;font-size:907.08660889px;line-height:1.25;font-family:Oswald;-inkscape-font-specification:Oswald;letter-spacing:0px;word-spacing:0px;fill:#0c401c;fill-opacity:1;stroke:#0c401c;stroke-width:2;stroke-linejoin:round;stroke-miterlimit:4;stroke-dasharray:none;stroke-opacity:1"
           d="M 647.03087,295.74648 V 101.34647 h 26.64 v 194.40001 z" />
        <path
           inkscape:connector-curvature="0"
           id="path1353"
           style="font-style:normal;font-variant:normal;font-weight:normal;font-stretch:normal;font-size:907.08660889px;line-height:1.25;font-family:Oswald;-inkscape-font-specification:Oswald;letter-spacing:0px;word-spacing:0px;fill:#ffff00;fill-opacity:1;stroke:#ffff00;stroke-width:2;stroke-linejoin:round;stroke-miterlimit:10.69999981;stroke-dasharray:none;stroke-opacity:1"
           d="M 726.48213,295.74648 V 121.50647 h -32.88001 v -20.16 h 91.92 v 20.16 h -31.91999 v 174.24001 z" />
        <g
           id="g1149"
           transform="rotate(16.233304,-952.81022,-2348.7417)">
          <path
             inkscape:connector-curvature="0"
             id="path839"
             d="m 979.90057,-318.4668 c 0,0 -6.15012,3.57866 -8.34961,9.81055 -1.11971,3.17252 -0.91217,7.79319 -0.46679,11.66796 0.44537,3.87478 1.1582,6.99415 1.1582,6.99415 l 0.97461,-0.22266 c 0,0 -0.70017,-3.06976 -1.13867,-6.88477 -0.43851,-3.81501 -0.58559,-8.38477 0.41601,-11.22265 2.04315,-5.78893 7.91406,-9.28125 7.91406,-9.28125 z"
             style="color:#000000;font-style:normal;font-variant:normal;font-weight:normal;font-stretch:normal;font-size:medium;line-height:normal;font-family:sans-serif;font-variant-ligatures:normal;font-variant-position:normal;font-variant-caps:normal;font-variant-numeric:normal;font-variant-alternates:normal;font-feature-settings:normal;text-indent:0;text-align:start;text-decoration:none;text-decoration-line:none;text-decoration-style:solid;text-decoration-color:#000000;letter-spacing:normal;word-spacing:normal;text-transform:none;writing-mode:lr-tb;direction:ltr;text-orientation:mixed;dominant-baseline:auto;baseline-shift:baseline;text-anchor:start;white-space:normal;shape-padding:0;clip-rule:nonzero;display:inline;overflow:visible;visibility:visible;opacity:1;isolation:auto;mix-blend-mode:normal;color-interpolation:sRGB;color-interpolation-filters:linearRGB;solid-color:#000000;solid-opacity:1;vector-effect:none;fill:#3ba151;fill-opacity:1;fill-rule:nonzero;stroke:#3eac5c;stroke-width:2;stroke-linecap:butt;stroke-linejoin:miter;stroke-miterlimit:4;stroke-dasharray:none;stroke-dashoffset:0;stroke-opacity:1;color-rendering:auto;image-rendering:auto;shape-rendering:auto;text-rendering:auto;enable-background:accumulate" />
          <circle
             r="17.854446"
             cy="-279.32266"
             cx="976.79614"
             id="path835"
             style="opacity:1;fill:#c5221f;fill-opacity:1;stroke:#000000;stroke-width:1.5;stroke-miterlimit:4;stroke-dasharray:none;stroke-opacity:1" />
          <path
             inkscape:connector-curvature="0"
             id="path843"
             d="m 980.33398,-318.72266 c 0,0 -0.002,0.002 -0.002,0.002 l -0.86133,0.50782 c 0,0 0.0408,0.0634 0.0859,0.11914 0.0451,0.0557 0.11654,0.13884 0.23633,0.27148 0.23957,0.26529 0.67449,0.72793 1.47656,1.54102 1.60414,1.62617 4.67484,4.65352 10.56055,10.27344 11.87651,11.34014 25.35351,13.91796 25.35351,13.91796 l 0.1875,-0.98242 c 0,0 -13.1913,-2.52639 -24.84961,-13.6582 -5.88167,-5.61607 -8.9494,-8.63847 -10.54101,-10.25195 -0.79581,-0.80675 -1.22194,-1.26243 -1.44531,-1.50977 -0.11169,-0.12367 -0.17258,-0.19518 -0.20118,-0.23047 z"
             style="color:#000000;font-style:normal;font-variant:normal;font-weight:normal;font-stretch:normal;font-size:medium;line-height:normal;font-family:sans-serif;font-variant-ligatures:normal;font-variant-position:normal;font-variant-caps:normal;font-variant-numeric:normal;font-variant-alternates:normal;font-feature-settings:normal;text-indent:0;text-align:start;text-decoration:none;text-decoration-line:none;text-decoration-style:solid;text-decoration-color:#000000;letter-spacing:normal;word-spacing:normal;text-transform:none;writing-mode:lr-tb;direction:ltr;text-orientation:mixed;dominant-baseline:auto;baseline-shift:baseline;text-anchor:start;white-space:normal;shape-padding:0;clip-rule:nonzero;display:inline;overflow:visible;visibility:visible;opacity:1;isolation:auto;mix-blend-mode:normal;color-interpolation:sRGB;color-interpolation-filters:linearRGB;solid-color:#000000;solid-opacity:1;vector-effect:none;fill:#000000;fill-opacity:1;fill-rule:nonzero;stroke:#3eac5c;stroke-width:2;stroke-linecap:butt;stroke-linejoin:miter;stroke-miterlimit:4;stroke-dasharray:none;stroke-dashoffset:0;stroke-opacity:1;color-rendering:auto;image-rendering:auto;shape-rendering:auto;text-rendering:auto;enable-background:accumulate" />
          <circle
             style="opacity:1;fill:#c5221f;fill-opacity:1;stroke:#000000;stroke-width:1.5;stroke-miterlimit:4;stroke-dasharray:none;stroke-opacity:1"
             id="circle837"
             cx="1018.5155"
             cy="-281.09042"
             r="17.854446" />
          <path
             inkscape:connector-curvature="0"
             id="path847"
             d="M 981.14063,-319.3241 969.125,-334.73035 c 0,0 -3.625,-4 -6.375,-2.5625 -2.75,1.4375 -0.6875,5.125 -0.6875,5.125 l 4.375,5 c 0,0 1.75,3.375 -0.25,4 -2,0.625 2,1.5625 2,1.5625 0,0 9.53642,4.53664 8.34049,5.72775 -1.19593,1.1911 4.61264,-3.4465 4.61264,-3.4465 z"
             style="fill:#3eac5c;fill-opacity:1;stroke:none;stroke-width:1px;stroke-linecap:butt;stroke-linejoin:miter;stroke-opacity:1" />
          <path
             inkscape:connector-curvature="0"
             id="path849"
             d="m 983.69048,-290.63636 3.88908,3.18198 -2.29809,2.65165 z"
             style="fill:#ffffff;stroke:none;stroke-width:1px;stroke-linecap:butt;stroke-linejoin:miter;stroke-opacity:1" />
          <path
             inkscape:connector-curvature="0"
             id="path851"
             d="m 1026.2937,-291.8738 3.8891,3.88909 -2.2981,2.47487 z"
             style="fill:#ffffff;stroke:none;stroke-width:1px;stroke-linecap:butt;stroke-linejoin:miter;stroke-opacity:1" />
        </g>
        <g
           id="g1133"
           transform="rotate(4.2626106,-4827.4481,-5264.9007)">
          <circle
             style="opacity:1;fill:#8838cf;fill-opacity:1;stroke:#000000;stroke-width:1;stroke-miterlimit:4;stroke-dasharray:none;stroke-opacity:1"
             id="circle864"
             cx="838.20923"
             cy="-206.85019"
             r="9.75" />
          <circle
             r="9.75"
             cy="-221.35019"
             cx="845.70923"
             id="circle866"
             style="opacity:1;fill:#8838cf;fill-opacity:1;stroke:#000000;stroke-width:1;stroke-miterlimit:4;stroke-dasharray:none;stroke-opacity:1" />
          <circle
             style="opacity:1;fill:#8838cf;fill-opacity:1;stroke:#000000;stroke-width:1;stroke-miterlimit:4;stroke-dasharray:none;stroke-opacity:1"
             id="circle868"
             cx="828.70923"
             cy="-221.60019"
             r="9.75" />
          <circle
             r="9.75"
             cy="-235.60019"
             cx="850.70923"
             id="circle870"
             style="opacity:1;fill:#8838cf;fill-opacity:1;stroke:#000000;stroke-width:1;stroke-miterlimit:4;stroke-dasharray:none;stroke-opacity:1" />
          <circle
             style="opacity:1;fill:#8838cf;fill-opacity:1;stroke:#000000;stroke-width:1;stroke-miterlimit:4;stroke-dasharray:none;stroke-opacity:1"
             id="circle872"
             cx="835.95923"
             cy="-236.10019"
             r="9.75" />
          <circle
             r="9.75"
             cy="-235.85019"
             cx="820.70923"
             id="circle874"
             style="opacity:1;fill:#8838cf;fill-opacity:1;stroke:#000000;stroke-width:1;stroke-miterlimit:4;stroke-dasharray:none;stroke-opacity:1" />
          <circle
             style="opacity:1;fill:#8838cf;fill-opacity:1;stroke:#000000;stroke-width:1;stroke-miterlimit:4;stroke-dasharray:none;stroke-opacity:1"
             id="circle876"
             cx="857.45923"
             cy="-249.85019"
             r="9.75" />
          <path
             style="fill:#3eac5c;fill-opacity:1;stroke:none;stroke-width:1px;stroke-linecap:butt;stroke-linejoin:miter;stroke-opacity:1"
             d="m 837.92081,-256.63033 -1.85378,-24.01336 c 0,0 -0.90746,-6.56998 -3.99912,-6.89787 -3.09167,-0.32788 -3.33397,4.88002 -3.33397,4.88002 l 1.00256,8.10881 c 0,0 -0.33791,4.67518 -2.36044,3.99895 -2.02253,-0.67624 0.84697,2.95387 0.84697,2.95387 0,0 5.60433,11.05094 3.95567,11.49763 -1.64866,0.44668 5.74211,-0.52804 5.74211,-0.52805 z"
             id="path911"
             inkscape:connector-curvature="0" />
          <circle
             r="9.75"
             cy="-251.60019"
             cx="844.45923"
             id="circle878"
             style="opacity:1;fill:#8838cf;fill-opacity:1;stroke:#000000;stroke-width:1;stroke-miterlimit:4;stroke-dasharray:none;stroke-opacity:1" />
          <circle
             style="opacity:1;fill:#8838cf;fill-opacity:1;stroke:#000000;stroke-width:1;stroke-miterlimit:4;stroke-dasharray:none;stroke-opacity:1"
             id="circle880"
             cx="829.20923"
             cy="-250.85019"
             r="9.75" />
          <circle
             r="9.75"
             cy="-246.85019"
             cx="812.95923"
             id="circle882"
             style="opacity:1;fill:#8838cf;fill-opacity:1;stroke:#000000;stroke-width:1;stroke-miterlimit:4;stroke-dasharray:none;stroke-opacity:1" />
          <path
             inkscape:connector-curvature="0"
             id="path884"
             d="m 812.9592,-254.10019 4.25,2.5 -2.5,1.25 z"
             style="fill:#ffffff;stroke:none;stroke-width:1px;stroke-linecap:butt;stroke-linejoin:miter;stroke-opacity:1" />
          <path
             style="fill:#ffffff;stroke:none;stroke-width:1px;stroke-linecap:butt;stroke-linejoin:miter;stroke-opacity:1"
             d="m 848.2092,-224.35019 4.25,2.5 -2.5,1.25 z"
             id="path886"
             inkscape:connector-curvature="0" />
          <path
             inkscape:connector-curvature="0"
             id="path888"
             d="m 831.2092,-224.60019 4.25,2.5 -2.5,1.25 z"
             style="fill:#ffffff;stroke:none;stroke-width:1px;stroke-linecap:butt;stroke-linejoin:miter;stroke-opacity:1" />
          <path
             style="fill:#ffffff;stroke:none;stroke-width:1px;stroke-linecap:butt;stroke-linejoin:miter;stroke-opacity:1"
             d="m 852.7092,-238.60019 4.25,2.5 -2.5,1.25 z"
             id="path890"
             inkscape:connector-curvature="0" />
          <path
             inkscape:connector-curvature="0"
             id="path892"
             d="m 838.7092,-241.10019 4.25,2.5 -2.5,1.25 z"
             style="fill:#ffffff;stroke:none;stroke-width:1px;stroke-linecap:butt;stroke-linejoin:miter;stroke-opacity:1" />
          <path
             style="fill:#ffffff;stroke:none;stroke-width:1px;stroke-linecap:butt;stroke-linejoin:miter;stroke-opacity:1"
             d="m 822.4592,-239.10019 4.25,2.5 -2.5,1.25 z"
             id="path894"
             inkscape:connector-curvature="0" />
          <path
             inkscape:connector-curvature="0"
             id="path896"
             d="m 860.7092,-255.60019 4.25,2.5 -2.5,1.25 z"
             style="fill:#ffffff;stroke:none;stroke-width:1px;stroke-linecap:butt;stroke-linejoin:miter;stroke-opacity:1" />
          <path
             style="fill:#ffffff;stroke:none;stroke-width:1px;stroke-linecap:butt;stroke-linejoin:miter;stroke-opacity:1"
             d="m 846.4592,-258.35019 4.25,2.5 -2.5,1.25 z"
             id="path898"
             inkscape:connector-curvature="0" />
          <path
             inkscape:connector-curvature="0"
             id="path900"
             d="m 829.9592,-258.35019 4.25,2.5 -2.5,1.25 z"
             style="fill:#ffffff;stroke:none;stroke-width:1px;stroke-linecap:butt;stroke-linejoin:miter;stroke-opacity:1" />
          <path
             style="fill:#ffffff;stroke:none;stroke-width:1px;stroke-linecap:butt;stroke-linejoin:miter;stroke-opacity:1"
             d="m 840.7092,-209.60019 4.25,2.5 -2.5,1.25 z"
             id="path902"
             inkscape:connector-curvature="0" />
        </g>
        <g
           id="g1187"
           transform="translate(-178.55801,531.1605)">
          <ellipse
             ry="36.76955"
             rx="41.012192"
             cy="-269.77359"
             cx="743.8764"
             id="path945"
             style="opacity:1;fill:#ff6600;fill-opacity:1;stroke:none;stroke-width:3;stroke-miterlimit:4;stroke-dasharray:none;stroke-opacity:1" />
          <ellipse
             ry="2.5250001"
             rx="7.2749996"
             cy="-302.25363"
             cx="743.8764"
             id="path949"
             style="opacity:1;fill:#ff6600;fill-opacity:1;stroke:#ffffff;stroke-width:2;stroke-miterlimit:4;stroke-dasharray:none;stroke-opacity:1" />
          <ellipse
             style="opacity:1;fill:none;fill-opacity:1;stroke:#000000;stroke-width:1.5;stroke-miterlimit:4;stroke-dasharray:none;stroke-opacity:1"
             id="ellipse947"
             cx="743.8764"
             cy="-269.77359"
             rx="41.012192"
             ry="36.76955" />
          <circle
             r="1"
             style="opacity:1;fill:#ffffff;fill-opacity:1;stroke:none;stroke-width:3;stroke-miterlimit:4;stroke-dasharray:none;stroke-opacity:1"
             id="circle973"
             cx="722.66046"
             cy="-289.97864" />
          <circle
             cy="-247.72865"
             cx="761.16046"
             id="circle1005"
             style="opacity:1;fill:#ffffff;fill-opacity:1;stroke:none;stroke-width:3;stroke-miterlimit:4;stroke-dasharray:none;stroke-opacity:1"
             r="1" />
          <circle
             r="1"
             style="opacity:1;fill:#ffffff;fill-opacity:1;stroke:none;stroke-width:3;stroke-miterlimit:4;stroke-dasharray:none;stroke-opacity:1"
             id="circle1007"
             cx="743.41046"
             cy="-244.97865" />
          <circle
             cy="-250.22865"
             cx="726.16046"
             id="circle1009"
             style="opacity:1;fill:#ffffff;fill-opacity:1;stroke:none;stroke-width:3;stroke-miterlimit:4;stroke-dasharray:none;stroke-opacity:1"
             r="1" />
          <circle
             r="1"
             style="opacity:1;fill:#ffffff;fill-opacity:1;stroke:none;stroke-width:3;stroke-miterlimit:4;stroke-dasharray:none;stroke-opacity:1"
             id="circle1011"
             cx="768.91046"
             cy="-261.72864" />
          <circle
             cy="-259.97864"
             cx="752.16046"
             id="circle1013"
             style="opacity:1;fill:#ffffff;fill-opacity:1;stroke:none;stroke-width:3;stroke-miterlimit:4;stroke-dasharray:none;stroke-opacity:1"
             r="1" />
          <circle
             r="1"
             style="opacity:1;fill:#ffffff;fill-opacity:1;stroke:none;stroke-width:3;stroke-miterlimit:4;stroke-dasharray:none;stroke-opacity:1"
             id="circle1015"
             cx="737.16046"
             cy="-259.22864" />
          <circle
             cy="-264.47864"
             cx="716.16046"
             id="circle1017"
             style="opacity:1;fill:#ffffff;fill-opacity:1;stroke:none;stroke-width:3;stroke-miterlimit:4;stroke-dasharray:none;stroke-opacity:1"
             r="1" />
          <circle
             r="1"
             style="opacity:1;fill:#ffffff;fill-opacity:1;stroke:none;stroke-width:3;stroke-miterlimit:4;stroke-dasharray:none;stroke-opacity:1"
             id="circle1019"
             cx="772.66046"
             cy="-278.22864" />
          <circle
             cy="-273.72864"
             cx="757.16046"
             id="circle1021"
             style="opacity:1;fill:#ffffff;fill-opacity:1;stroke:none;stroke-width:3;stroke-miterlimit:4;stroke-dasharray:none;stroke-opacity:1"
             r="1" />
          <circle
             r="1"
             style="opacity:1;fill:#ffffff;fill-opacity:1;stroke:none;stroke-width:3;stroke-miterlimit:4;stroke-dasharray:none;stroke-opacity:1"
             id="circle1023"
             cx="729.91046"
             cy="-272.47864" />
          <circle
             cy="-286.47864"
             cx="734.91046"
             id="circle1025"
             style="opacity:1;fill:#ffffff;fill-opacity:1;stroke:none;stroke-width:3;stroke-miterlimit:4;stroke-dasharray:none;stroke-opacity:1"
             r="1" />
          <circle
             r="1"
             style="opacity:1;fill:#ffffff;fill-opacity:1;stroke:none;stroke-width:3;stroke-miterlimit:4;stroke-dasharray:none;stroke-opacity:1"
             id="circle1027"
             cx="713.41046"
             cy="-280.47864" />
          <circle
             cy="-284.97864"
             cx="751.41046"
             id="circle1029"
             style="opacity:1;fill:#ffffff;fill-opacity:1;stroke:none;stroke-width:3;stroke-miterlimit:4;stroke-dasharray:none;stroke-opacity:1"
             r="1" />
          <circle
             r="1"
             style="opacity:1;fill:#ffffff;fill-opacity:1;stroke:none;stroke-width:3;stroke-miterlimit:4;stroke-dasharray:none;stroke-opacity:1"
             id="circle1031"
             cx="766.41046"
             cy="-291.22864" />
        </g>
        <g
           id="g1752">
          <path
             sodipodi:nodetypes="cccccsccccccc"
             inkscape:connector-curvature="0"
             id="path1189"
             d="m 668.4009,244.94018 c -3.35699,-0.11112 -6.78128,0.16273 -10.15816,0.81218 -15.64197,3.01969 -27.80517,13.53096 -29.371,25.38203 -4.09979,1.94554 -5.8081,3.00995 -6.4064,5.14215 -0.96029,3.4223 1.50962,7.52965 1.50962,7.52965 0,0 1.78279,4.9271 5.76114,5.064 2.22408,0.0765 2.45452,-0.25706 5.72282,-0.69496 7.34643,6.64682 19.43564,9.31892 31.6203,6.98906 18.61428,-3.57857 31.726,-17.54058 29.28613,-31.18532 -0.0682,-0.34087 -0.14598,-0.67973 -0.23342,-1.01637 2.33597,-4.08944 2.15428,-6.0395 2.33378,-8.72639 0.20518,-3.07122 -5.99116,-4.85715 -10.93076,-3.3536 -5.06517,-3.59904 -11.78832,-5.68706 -19.13405,-5.94243 z"
             style="opacity:1;fill:#0c401c;fill-opacity:1;stroke:#000000;stroke-width:1.5;stroke-miterlimit:4;stroke-dasharray:none;stroke-opacity:1" />
          <ellipse
             ry="0.73295534"
             rx="0.7297371"
             style="opacity:1;fill:#000000;fill-opacity:1;stroke:none;stroke-width:1.50000012;stroke-miterlimit:4;stroke-dasharray:none;stroke-opacity:1"
             id="circle1228"
             cx="678.88257"
             cy="253.27071" />
          <ellipse
             ry="0.73295534"
             rx="0.7297371"
             cy="278.00793"
             cx="665.20001"
             id="circle1280"
             style="opacity:1;fill:#000000;fill-opacity:1;stroke:none;stroke-width:1.50000012;stroke-miterlimit:4;stroke-dasharray:none;stroke-opacity:1" />
          <ellipse
             ry="0.73295534"
             rx="0.7297371"
             style="opacity:1;fill:#000000;fill-opacity:1;stroke:none;stroke-width:1.50000012;stroke-miterlimit:4;stroke-dasharray:none;stroke-opacity:1"
             id="circle1282"
             cx="659.17963"
             cy="263.44046" />
          <ellipse
             ry="0.73295534"
             rx="0.7297371"
             cy="284.23807"
             cx="675.87238"
             id="circle1284"
             style="opacity:1;fill:#000000;fill-opacity:1;stroke:none;stroke-width:1.50000012;stroke-miterlimit:4;stroke-dasharray:none;stroke-opacity:1" />
          <ellipse
             ry="0.73295534"
             rx="0.7297371"
             style="opacity:1;fill:#000000;fill-opacity:1;stroke:none;stroke-width:1.50000012;stroke-miterlimit:4;stroke-dasharray:none;stroke-opacity:1"
             id="circle1286"
             cx="664.47028"
             cy="251.25508" />
          <ellipse
             ry="0.73295534"
             rx="0.7297371"
             cy="266.83038"
             cx="674.50415"
             id="circle1288"
             style="opacity:1;fill:#000000;fill-opacity:1;stroke:none;stroke-width:1.50000012;stroke-miterlimit:4;stroke-dasharray:none;stroke-opacity:1" />
          <ellipse
             ry="0.73295534"
             rx="0.7297371"
             style="opacity:1;fill:#000000;fill-opacity:1;stroke:none;stroke-width:1.50000012;stroke-miterlimit:4;stroke-dasharray:none;stroke-opacity:1"
             id="circle1290"
             cx="687.18329"
             cy="271.68622" />
          <ellipse
             ry="0.73295534"
             rx="0.7297371"
             style="opacity:1;fill:#000000;fill-opacity:1;stroke:none;stroke-width:1.50000012;stroke-miterlimit:4;stroke-dasharray:none;stroke-opacity:1"
             id="circle1294"
             cx="643.21667"
             cy="284.78778" />
          <ellipse
             ry="0.73295534"
             rx="0.7297371"
             cy="268.66278"
             cx="637.74365"
             id="circle1296"
             style="opacity:1;fill:#000000;fill-opacity:1;stroke:none;stroke-width:1.50000012;stroke-miterlimit:4;stroke-dasharray:none;stroke-opacity:1" />
          <ellipse
             ry="0.73295534"
             rx="0.7297371"
             style="opacity:1;fill:#000000;fill-opacity:1;stroke:none;stroke-width:1.50000012;stroke-miterlimit:4;stroke-dasharray:none;stroke-opacity:1"
             id="circle1298"
             cx="651.06134"
             cy="273.70184" />
          <ellipse
             ry="0.73295534"
             rx="0.7297371"
             cy="289.73523"
             cx="656.16949"
             id="circle1300"
             style="opacity:1;fill:#000000;fill-opacity:1;stroke:none;stroke-width:1.50000012;stroke-miterlimit:4;stroke-dasharray:none;stroke-opacity:1" />
          <ellipse
             ry="0.73295534"
             rx="0.7297371"
             style="opacity:1;fill:#000000;fill-opacity:1;stroke:none;stroke-width:1.50000012;stroke-miterlimit:4;stroke-dasharray:none;stroke-opacity:1"
             id="circle1302"
             cx="645.77075"
             cy="257.66843" />
        </g>
        <g
           id="g1762">
          <path
             sodipodi:nodetypes="ccsccsc"
             inkscape:connector-curvature="0"
             id="path1321"
             d="m 714.56774,293.9823 -0.50823,-9.10265 c 0,0 30.71139,-4.70442 43.92703,-22.39012 12.72039,-17.02296 11.80962,-49.55038 11.80962,-49.55038 l 6.56686,0.86518 c 0,0 11.66213,49.26778 -5.83245,67.51101 -16.76862,17.48619 -55.96283,12.66696 -55.96283,12.66696 z"
             style="fill:#ffff00;fill-opacity:1;stroke:#000000;stroke-width:0.99999994px;stroke-linecap:butt;stroke-linejoin:miter;stroke-opacity:1" />
          <path
             sodipodi:nodetypes="csc"
             inkscape:connector-curvature="0"
             id="path1325"
             d="m 717.21396,289.48828 c 0,0 29.26776,2.24113 45.74339,-14.6197 13.82411,-14.1473 10.59641,-57.86882 10.59641,-57.86882"
             style="fill:none;stroke:#71716c;stroke-width:0.99999994px;stroke-linecap:butt;stroke-linejoin:miter;stroke-opacity:1" />
          <path
             inkscape:connector-curvature="0"
             id="path1327"
             d="m 714.64493,293.84137 -4.34664,-0.45521 -0.2259,-8.63222 4.01332,0.21817 z"
             style="fill:#000000;stroke:#000000;stroke-width:0.99999994px;stroke-linecap:butt;stroke-linejoin:miter;stroke-opacity:1" />
          <path
             sodipodi:nodetypes="ccccc"
             inkscape:connector-curvature="0"
             id="path1329"
             d="m 769.78707,213.72935 -0.0484,-1.44529 6.3557,-0.047 0.22646,1.47303 z"
             style="fill:#000000;stroke:#000000;stroke-width:0.99999994px;stroke-linecap:butt;stroke-linejoin:miter;stroke-opacity:1" />
        </g>
      </g>
      <g
         id="flowRoot1764"
         style="font-style:normal;font-variant:normal;font-weight:normal;font-stretch:normal;font-size:80px;line-height:1.25;font-family:'Segoe Print';-inkscape-font-specification:'Segoe Print';letter-spacing:0px;word-spacing:0px;fill:#000000;fill-opacity:1;stroke:none"
         transform="translate(116,13.522852)"
         aria-label="fake">
        <path
           inkscape:connector-curvature="0"
           id="path1772"
           style="font-size:186.66667175px"
           d="m -226.73958,277.84602 q -0.63802,2.27865 -3.46354,3.82813 -2.82553,1.54948 -5.65105,1.54948 -9.29687,0 -9.29687,-13.58073 0,-6.47136 4.28385,-36.64063 2.64323,-18.5026 2.64323,-28.07292 0,-1.64062 -3.82812,-4.28385 -3.91927,-2.55208 -3.91927,-5.01302 0,-3.91927 5.92448,-8.47656 4.55729,-3.55469 5.55989,-7.92969 1.09375,-4.375 2.46094,-12.1224 4.64844,-28.25521 14.49219,-40.74219 9.93489,-12.48698 25.24739,-12.48698 8.11198,0 13.76302,5.5599 5.65105,5.46875 5.65105,13.67188 0,6.65364 -3.19011,15.1302 -3.09896,8.38542 -7.10937,8.38542 -3.00782,0 -3.00782,-3.00781 l 0.63803,-8.84115 q 0,-17.59114 -9.84375,-17.59114 -10.66407,0 -17.6823,20.96354 -7.01823,20.8724 -7.01823,33.9974 0,4.1927 5.46875,4.1927 23.78907,0 27.98178,-0.18229 4.28385,-0.18229 4.28385,3.55469 0,3.73698 -4.64844,5.74219 -4.55729,1.91406 -20.05208,3.46354 -13.21615,1.36719 -14.94792,2.27865 -6.10677,33.90625 -6.10677,60.42968 0,7.92969 0.72917,11.75782 0.63802,3.55468 0.63802,4.46614 z" />
        <path
           inkscape:connector-curvature="0"
           id="path1774"
           style="font-size:186.66667175px"
           d="m -113.80989,240.47623 q -12.76042,17.13542 -25.2474,25.70313 -12.48697,8.5677 -22.8776,8.5677 -7.01823,0 -12.1224,-5.92447 -5.10416,-5.92448 -5.10416,-15.22136 0,-23.97135 21.41927,-51.58854 21.41927,-27.70834 42.5651,-27.70834 7.65625,0 11.39323,8.75 1.1849,2.91667 3.73698,2.91667 7.291669,0 7.291669,5.65104 0,2.82552 -0.911458,7.7474 -4.921875,26.88802 -4.921875,37.91667 0,22.05729 8.385417,26.43229 4.010417,2.1875 4.010417,5.3776 0,2.82552 -3.919271,5.65104 -3.919271,2.91667 -7.565105,2.91667 -7.018234,0 -11.575524,-9.66146 -4.55729,-9.66146 -4.55729,-27.52604 z m -5.55989,-51.3151 q -12.03126,0 -27.98178,22.60416 -15.95052,22.51302 -15.95052,37.3698 0,10.48177 6.92709,10.48177 10.02604,0 27.79948,-20.23438 17.77343,-20.23437 17.77343,-37.1875 0,-13.03385 -8.5677,-13.03385 z" />
        <path
           inkscape:connector-curvature="0"
           id="path1776"
           style="font-size:186.66667175px"
           d="m -47.820312,231.08821 q 1.184896,-1.54948 16.315105,-14.67448 14.309896,-12.48698 19.960938,-18.13802 21.054688,-21.05469 30.260417,-21.05469 7.109376,0 7.109376,6.83594 0,7.74739 -7.01823,11.39323 -9.1145833,4.64844 -24.3359379,15.49479 -15.2213541,10.75521 -15.2213541,15.22135 0,1.82292 10.7552082,13.67188 10.7552086,11.75781 18.5937505,17.40885 7.8385423,5.5599 15.2213543,5.5599 l 3.007813,-0.0912 q 3.190104,-0.18229 3.190104,2.82553 0,4.01041 -5.013021,8.11197 -5.013021,4.19271 -13.216146,4.19271 -5.2864585,0 -10.7552087,-3.73698 -5.3776043,-3.64583 -19.2317713,-19.86979 -11.028646,-13.39844 -13.763021,-15.95052 -2.734375,-2.64323 -4.557292,-2.64323 -1.002604,0 -6.380209,4.73958 -5.377604,4.73959 -5.924479,7.20053 -0.455729,2.46093 -0.455729,18.77604 v 4.28385 q 0,3.3724 -3.190104,6.01563 -3.190105,2.64323 -6.927084,2.64323 -3.828125,0 -6.015625,-2.27865 -2.1875,-2.1875 -2.1875,-4.55729 0,-3.28125 2.460938,-15.49479 3.463541,-17.59115 6.380208,-47.1224 6.744792,-69.72656 10.390625,-78.84115 3.645834,-9.20573 10.390626,-9.20573 2.369791,0 3.919271,2.55209 1.640625,2.55208 1.640625,6.5625 0,7.29166 -6.289063,38.73698 -6.289063,31.53646 -9.114584,61.43229 z" />
        <path
           inkscape:connector-curvature="0"
           id="path1778"
           style="font-size:186.66667175px"
           d="m 122.98698,242.75488 q 0,9.29687 -16.49739,22.42187 -16.406255,13.125 -33.906256,13.125 -14.674479,0 -22.695313,-8.65885 -7.929687,-8.65886 -7.929687,-24.15365 0,-26.06771 17.591146,-49.58333 17.591146,-23.51563 38.463543,-23.51563 6.835937,0 11.119787,4.46615 4.375,4.46614 4.375,10.75521 0,14.03645 -13.763017,26.88802 -13.763021,12.85156 -36.822917,25.24739 -4.739584,2.46094 -4.739584,6.38021 0,7.56511 4.375,12.1224 4.375001,4.55729 12.942709,4.55729 19.596355,0 40.013019,-21.69271 3.00782,-3.00781 4.55729,-3.00781 2.91667,0 2.91667,4.64844 z M 59.640626,228.53613 q 38.645834,-22.96875 38.645834,-36.91407 0,-5.46875 -4.921875,-5.46875 -8.385417,0 -18.958334,12.30469 -10.481771,12.30469 -14.765625,30.07813 z" />
      </g>
    </g>
  </g>
</svg>
