<?xml version="1.0" encoding="UTF-8" standalone="no"?>
<!-- Created with Inkscape (http://www.inkscape.org/) -->

<svg
   xmlns:dc="http://purl.org/dc/elements/1.1/"
   xmlns:cc="http://creativecommons.org/ns#"
   xmlns:rdf="http://www.w3.org/1999/02/22-rdf-syntax-ns#"
   xmlns:svg="http://www.w3.org/2000/svg"
   xmlns="http://www.w3.org/2000/svg"
   xmlns:sodipodi="http://sodipodi.sourceforge.net/DTD/sodipodi-0.dtd"
   xmlns:inkscape="http://www.inkscape.org/namespaces/inkscape"
   width="600"
   height="600"
   viewBox="0 0 600 600.00002"
   version="1.1"
   id="svg8"
   inkscape:version="0.92.4 (5da689c313, 2019-01-14)"
   sodipodi:docname="Repair Logo.svg">
  <defs
     id="defs2" />
  <sodipodi:namedview
     id="base"
     pagecolor="#ffffff"
     bordercolor="#666666"
     borderopacity="1.0"
     inkscape:pageopacity="0.0"
     inkscape:pageshadow="2"
     inkscape:zoom="0.5"
     inkscape:cx="436.03723"
     inkscape:cy="260"
     inkscape:document-units="px"
     inkscape:current-layer="layer1"
     showgrid="false"
     units="px"
     showborder="false"
     showguides="true"
     inkscape:guide-bbox="true"
     inkscape:object-paths="false"
     inkscape:snap-intersection-paths="false"
     inkscape:snap-smooth-nodes="false"
     inkscape:window-width="2400"
     inkscape:window-height="1271"
     inkscape:window-x="-9"
     inkscape:window-y="-9"
     inkscape:window-maximized="1"
     inkscape:object-nodes="false"
     inkscape:snap-nodes="false" />
  <metadata
     id="metadata5">
    <rdf:RDF>
      <cc:Work
         rdf:about="">
        <dc:format>image/svg+xml</dc:format>
        <dc:type
           rdf:resource="http://purl.org/dc/dcmitype/StillImage" />
        <dc:title />
      </cc:Work>
    </rdf:RDF>
  </metadata>
  <g
     inkscape:label="Layer 1"
     inkscape:groupmode="layer"
     id="layer1"
     transform="translate(0,-522.51965)">
    <g
       id="g860"
       transform="translate(5,-23.9674)">
      <path
         inkscape:connector-curvature="0"
         style="opacity:1;vector-effect:none;fill:#9aa0a7;fill-opacity:1;stroke:#9aa0a7;stroke-width:10;stroke-linecap:butt;stroke-linejoin:miter;stroke-miterlimit:4;stroke-dasharray:none;stroke-dashoffset:0;stroke-opacity:1"
         d="m 366,595.64785 c -70.6729,-10e-6 -141.34578,1.84679 -147.74325,5.54037 -12.79494,7.38717 -147.74325,241.12545 -147.743251,255.89977 -10e-7,14.77433 134.948311,248.51071 147.743251,255.89791 12.79494,7.3872 282.69156,7.3872 295.4865,0 12.79494,-7.3872 147.74325,-241.12358 147.74325,-255.89791 0,-14.77432 -134.94831,-248.5126 -147.74325,-255.89977 C 507.34578,597.49464 436.67289,595.64785 366,595.64785 Z m 0,126.00883 A 135.43131,135.43131 0 0 1 501.43131,857.08799 135.43131,135.43131 0 0 1 366,992.51931 135.43131,135.43131 0 0 1 230.56869,857.08799 135.43131,135.43131 0 0 1 366,721.65668 Z"
         id="path882" />
      <path
         transform="translate(0,522.51965)"
         id="circle856"
         d="m 300,197.06836 a 137.5,137.5 0 0 0 -137.5,137.5 137.5,137.5 0 0 0 137.5,137.5 137.5,137.5 0 0 0 34.52734,-4.50586 A 137.5,137.5 0 0 1 231.25,334.56836 137.5,137.5 0 0 1 334.22266,201.57227 137.5,137.5 0 0 0 300,197.06836 Z"
         style="opacity:1;vector-effect:none;fill:#9aa0a7;fill-opacity:1;stroke:none;stroke-width:6;stroke-linecap:butt;stroke-linejoin:miter;stroke-miterlimit:4;stroke-dasharray:none;stroke-dashoffset:0;stroke-opacity:1"
         inkscape:connector-curvature="0" />
      <path
         inkscape:connector-curvature="0"
         style="opacity:1;vector-effect:none;fill:#9aa0a7;fill-opacity:1;stroke:#1a1b1b;stroke-width:6;stroke-linecap:butt;stroke-linejoin:miter;stroke-miterlimit:4;stroke-dasharray:none;stroke-dashoffset:0;stroke-opacity:1"
         d="m 322.91667,719.58801 a 137.5,137.5 0 0 0 -137.5,137.5 137.5,137.5 0 0 0 137.5,137.5 137.5,137.5 0 0 0 34.52734,-4.50586 137.5,137.5 0 0 1 -103.27734,-132.99414 137.5,137.5 0 0 1 102.97266,-132.99609 137.5,137.5 0 0 0 -34.22266,-4.50391 z"
         id="path877" />
      <path
         id="path875"
         d="m 345.83333,719.58801 a 137.5,137.5 0 0 0 -137.5,137.5 137.5,137.5 0 0 0 137.5,137.5 137.5,137.5 0 0 0 34.52734,-4.50586 137.5,137.5 0 0 1 -103.27734,-132.99414 137.5,137.5 0 0 1 102.97266,-132.99609 137.5,137.5 0 0 0 -34.22266,-4.50391 z"
         style="opacity:1;vector-effect:none;fill:#9aa0a7;fill-opacity:1;stroke:#1a1b1b;stroke-width:6;stroke-linecap:butt;stroke-linejoin:miter;stroke-miterlimit:4;stroke-dasharray:none;stroke-dashoffset:0;stroke-opacity:1"
         inkscape:connector-curvature="0" />
      <path
         inkscape:connector-curvature="0"
         style="opacity:1;vector-effect:none;fill:#ffffff;fill-opacity:1;stroke:none;stroke-width:6;stroke-linecap:butt;stroke-linejoin:miter;stroke-miterlimit:4;stroke-dasharray:none;stroke-dashoffset:0;stroke-opacity:1"
         d="m 368.74998,719.58801 a 137.5,137.5 0 0 0 -137.5,137.5 137.5,137.5 0 0 0 137.5,137.5 137.5,137.5 0 0 0 34.52734,-4.50586 137.5,137.5 0 0 1 -103.27734,-132.99414 137.5,137.5 0 0 1 102.97266,-132.99609 137.5,137.5 0 0 0 -34.22266,-4.50391 z"
         id="path873" />
      <path
         id="path821"
         transform="translate(0,522.51965)"
         d="m 300,69.134766 c -71.75241,-3e-6 -143.50481,1.875 -150,5.625 C 137.00962,82.259766 7.3205138e-7,319.56836 0,334.56836 c -7.3205071e-7,15 137.00962,252.30664 150,259.80664 12.99038,7.5 287.00962,7.5 300,0 12.99038,-7.5 150,-244.80664 150,-259.80664 0,-15 -137.00962,-252.308594 -150,-259.808594 -6.49519,-3.75 -78.24759,-5.624998 -150,-5.625 z m 0,127.933594 a 137.5,137.5 0 0 1 137.5,137.5 137.5,137.5 0 0 1 -137.5,137.5 137.5,137.5 0 0 1 -137.5,-137.5 137.5,137.5 0 0 1 137.5,-137.5 z"
         style="opacity:1;vector-effect:none;fill:#dadbe0;fill-opacity:1;stroke:#9aa0a7;stroke-width:10;stroke-linecap:butt;stroke-linejoin:miter;stroke-miterlimit:4;stroke-dasharray:none;stroke-dashoffset:0;stroke-opacity:1"
         inkscape:connector-curvature="0" />
      <g
         style="stroke-width:1.06250787"
         transform="matrix(0.90909996,-0.2435926,0.2435926,0.90909996,-143.83895,146.42077)"
         id="g931">
        <rect
           style="opacity:1;vector-effect:none;fill:#ffffff;fill-opacity:1;stroke:#2f75d6;stroke-width:6.37504673;stroke-linecap:butt;stroke-linejoin:miter;stroke-miterlimit:4;stroke-dasharray:none;stroke-dashoffset:0;stroke-opacity:1"
           id="rect884"
           width="309.99866"
           height="417.89145"
           x="331.99997"
           y="767.08801" />
        <flowRoot
           xml:space="preserve"
           id="flowRoot886"
           style="font-style:normal;font-variant:normal;font-weight:normal;font-stretch:normal;font-size:6.66666651px;line-height:1.25;font-family:'Cooper Black';-inkscape-font-specification:'Cooper Black, ';letter-spacing:0px;word-spacing:0px;fill:#2f75d6;fill-opacity:1;stroke:none;stroke-width:0.4442634"
           transform="matrix(2.3916169,0,0,2.3916169,2921.7695,1560.0312)"><flowRegion
             id="flowRegion888"
             style="font-style:normal;font-variant:normal;font-weight:normal;font-stretch:normal;font-family:'Cooper Black';-inkscape-font-specification:'Cooper Black, ';fill:#2f75d6;fill-opacity:1;stroke-width:0.4442634"><rect
               id="rect890"
               width="98.332825"
               height="68.828217"
               x="-1060.6602"
               y="-333.38095"
               style="font-style:normal;font-variant:normal;font-weight:normal;font-stretch:normal;font-family:'Cooper Black';-inkscape-font-specification:'Cooper Black, ';fill:#2f75d6;fill-opacity:1;stroke-width:0.4442634" /></flowRegion><flowPara
             id="flowPara892"
             style="font-style:normal;font-variant:normal;font-weight:bold;font-stretch:normal;font-size:53.33333206px;font-family:Dubai;-inkscape-font-specification:'Dubai Bold';fill:#2f75d6;fill-opacity:1;stroke-width:0.4442634">Fix</flowPara></flowRoot>        <flowRoot
           transform="matrix(2.3916169,0,0,2.3916169,2988.0003,1651.8754)"
           style="font-style:normal;font-variant:normal;font-weight:normal;font-stretch:normal;font-size:6.66666651px;line-height:1.25;font-family:'Cooper Black';-inkscape-font-specification:'Cooper Black, ';letter-spacing:0px;word-spacing:0px;fill:#2f75d6;fill-opacity:1;stroke:none;stroke-width:0.4442634"
           id="flowRoot908"
           xml:space="preserve"><flowRegion
             style="font-style:normal;font-variant:normal;font-weight:normal;font-stretch:normal;font-family:'Cooper Black';-inkscape-font-specification:'Cooper Black, ';fill:#2f75d6;fill-opacity:1;stroke-width:0.4442634"
             id="flowRegion904"><rect
               style="font-style:normal;font-variant:normal;font-weight:normal;font-stretch:normal;font-family:'Cooper Black';-inkscape-font-specification:'Cooper Black, ';fill:#2f75d6;fill-opacity:1;stroke-width:0.4442634"
               y="-333.38095"
               x="-1060.6602"
               height="68.828217"
               width="98.332825"
               id="rect902" /></flowRegion><flowPara
             style="font-style:normal;font-variant:normal;font-weight:bold;font-stretch:normal;font-size:53.33333206px;font-family:Dubai;-inkscape-font-specification:'Dubai Bold';fill:#2f75d6;fill-opacity:1;stroke-width:0.4442634"
             id="flowPara906">It</flowPara></flowRoot>        <path
           style="fill:#000000;stroke:#000000;stroke-width:10.6250782;stroke-linecap:butt;stroke-linejoin:miter;stroke-miterlimit:4;stroke-dasharray:none;stroke-opacity:1"
           d="m 361.9993,990.06939 h 250"
           id="path910"
           inkscape:connector-curvature="0" />
        <path
           inkscape:connector-curvature="0"
           id="path912"
           d="m 361.9993,1130.9859 h 125"
           style="fill:#000000;stroke:#000000;stroke-width:10.6250782;stroke-linecap:butt;stroke-linejoin:miter;stroke-miterlimit:4;stroke-dasharray:none;stroke-opacity:1" />
        <path
           style="fill:#000000;stroke:#000000;stroke-width:10.6250782;stroke-linecap:butt;stroke-linejoin:miter;stroke-miterlimit:4;stroke-dasharray:none;stroke-opacity:1"
           d="m 361.9993,1084.0137 h 125"
           id="path914"
           inkscape:connector-curvature="0" />
        <path
           inkscape:connector-curvature="0"
           id="path916"
           d="m 361.9993,1037.0416 h 125"
           style="fill:#000000;stroke:#000000;stroke-width:10.6250782;stroke-linecap:butt;stroke-linejoin:miter;stroke-miterlimit:4;stroke-dasharray:none;stroke-opacity:1" />
      </g>
    </g>
  </g>
</svg>
