<?xml version="1.0" encoding="UTF-8" standalone="no"?>
<!-- Created with Inkscape (http://www.inkscape.org/) -->

<svg
   xmlns:dc="http://purl.org/dc/elements/1.1/"
   xmlns:cc="http://creativecommons.org/ns#"
   xmlns:rdf="http://www.w3.org/1999/02/22-rdf-syntax-ns#"
   xmlns:svg="http://www.w3.org/2000/svg"
   xmlns="http://www.w3.org/2000/svg"
   xmlns:sodipodi="http://sodipodi.sourceforge.net/DTD/sodipodi-0.dtd"
   xmlns:inkscape="http://www.inkscape.org/namespaces/inkscape"
   width="600"
   height="600"
   viewBox="0 0 600 600.00002"
   version="1.1"
   id="svg8"
   inkscape:version="0.92.4 (5da689c313, 2019-01-14)"
   sodipodi:docname="repair_orders_logo.svg">
  <defs
     id="defs2" />
  <sodipodi:namedview
     id="base"
     pagecolor="#ffffff"
     bordercolor="#666666"
     borderopacity="1.0"
     inkscape:pageopacity="0.0"
     inkscape:pageshadow="2"
     inkscape:zoom="1"
     inkscape:cx="175.03723"
     inkscape:cy="214"
     inkscape:document-units="px"
     inkscape:current-layer="layer1"
     showgrid="false"
     units="px"
     showborder="false"
     showguides="true"
     inkscape:guide-bbox="true"
     inkscape:object-paths="false"
     inkscape:snap-intersection-paths="false"
     inkscape:snap-smooth-nodes="false"
     inkscape:window-width="2400"
     inkscape:window-height="1271"
     inkscape:window-x="-9"
     inkscape:window-y="-9"
     inkscape:window-maximized="1"
     inkscape:object-nodes="false"
     inkscape:snap-nodes="false" />
  <metadata
     id="metadata5">
    <rdf:RDF>
      <cc:Work
         rdf:about="">
        <dc:format>image/svg+xml</dc:format>
        <dc:type
           rdf:resource="http://purl.org/dc/dcmitype/StillImage" />
        <dc:title />
      </cc:Work>
    </rdf:RDF>
  </metadata>
  <g
     inkscape:label="Layer 1"
     inkscape:groupmode="layer"
     id="layer1"
     transform="translate(0,-522.51965)">
    <g
       id="g1451"
       inkscape:export-xdpi="300"
       inkscape:export-ydpi="300">
      <path
         inkscape:connector-curvature="0"
         style="opacity:1;vector-effect:none;fill:#9aa0a7;fill-opacity:1;stroke:#9aa0a7;stroke-width:10;stroke-linecap:butt;stroke-linejoin:miter;stroke-miterlimit:4;stroke-dasharray:none;stroke-dashoffset:0;stroke-opacity:1"
         d="m 371,571.68045 c -70.6729,-10e-6 -141.34578,1.84679 -147.74325,5.54037 -12.79494,7.38717 -147.74325,241.12545 -147.743251,255.89977 -10e-7,14.77433 134.948311,248.51071 147.743251,255.89791 12.79494,7.3872 282.69156,7.3872 295.4865,0 12.79494,-7.3872 147.74325,-241.12358 147.74325,-255.89791 0,-14.77432 -134.94831,-248.5126 -147.74325,-255.89977 C 512.34578,573.52724 441.67289,571.68045 371,571.68045 Z m 0,126.00883 A 135.43131,135.43131 0 0 1 506.43131,833.12059 135.43131,135.43131 0 0 1 371,968.55191 135.43131,135.43131 0 0 1 235.56869,833.12059 135.43131,135.43131 0 0 1 371,697.68928 Z"
         id="path882" />
      <path
         id="circle856"
         d="m 305,695.62061 a 137.5,137.5 0 0 0 -137.5,137.5 137.5,137.5 0 0 0 137.5,137.5 137.5,137.5 0 0 0 34.52734,-4.50586 A 137.5,137.5 0 0 1 236.25,833.12061 137.5,137.5 0 0 1 339.22266,700.12452 137.5,137.5 0 0 0 305,695.62061 Z"
         style="opacity:1;vector-effect:none;fill:#9aa0a7;fill-opacity:1;stroke:none;stroke-width:6;stroke-linecap:butt;stroke-linejoin:miter;stroke-miterlimit:4;stroke-dasharray:none;stroke-dashoffset:0;stroke-opacity:1"
         inkscape:connector-curvature="0" />
      <path
         inkscape:connector-curvature="0"
         style="opacity:1;vector-effect:none;fill:#9aa0a7;fill-opacity:1;stroke:#1a1b1b;stroke-width:6;stroke-linecap:butt;stroke-linejoin:miter;stroke-miterlimit:4;stroke-dasharray:none;stroke-dashoffset:0;stroke-opacity:1"
         d="m 327.91667,695.62061 a 137.5,137.5 0 0 0 -137.5,137.5 137.5,137.5 0 0 0 137.5,137.5 137.5,137.5 0 0 0 34.52734,-4.50586 137.5,137.5 0 0 1 -103.27734,-132.99414 137.5,137.5 0 0 1 102.97266,-132.99609 137.5,137.5 0 0 0 -34.22266,-4.50391 z"
         id="path877" />
      <path
         id="path875"
         transform="translate(0,522.51965)"
         d="M 350.83398 173.10156 A 137.5 137.5 0 0 0 213.33398 310.60156 A 137.5 137.5 0 0 0 350.83398 448.10156 A 137.5 137.5 0 0 0 362.00195 447.50977 A 137.5 137.5 0 0 1 236.25 310.60156 A 137.5 137.5 0 0 1 361.57422 173.70898 A 137.5 137.5 0 0 0 350.83398 173.10156 z "
         style="opacity:1;vector-effect:none;fill:#9aa0a7;fill-opacity:1;stroke:#1a1b1b;stroke-width:6;stroke-linecap:butt;stroke-linejoin:miter;stroke-miterlimit:4;stroke-dasharray:none;stroke-dashoffset:0;stroke-opacity:1" />
      <path
         id="path821"
         d="m 305,567.68702 c -71.75241,-10e-6 -143.50481,1.875 -150,5.625 -12.99038,7.5 -149.9999993,244.80859 -150,259.80859 -7e-7,15 137.00962,252.30669 150,259.80669 12.99038,7.5 287.00962,7.5 300,0 12.99038,-7.5 150,-244.80669 150,-259.80669 0,-15 -137.00962,-252.30859 -150,-259.80859 -6.49519,-3.75 -78.24759,-5.625 -150,-5.625 z m 0,127.93359 a 137.5,137.5 0 0 1 137.5,137.5 137.5,137.5 0 0 1 -137.5,137.5 137.5,137.5 0 0 1 -137.5,-137.5 137.5,137.5 0 0 1 137.5,-137.5 z"
         style="opacity:1;vector-effect:none;fill:#dadbe0;fill-opacity:1;stroke:#9aa0a7;stroke-width:10;stroke-linecap:butt;stroke-linejoin:miter;stroke-miterlimit:4;stroke-dasharray:none;stroke-dashoffset:0;stroke-opacity:1"
         inkscape:connector-curvature="0" />
      <rect
         transform="rotate(-15)"
         y="804.30658"
         x="146.66687"
         height="393.3067"
         width="291.76129"
         id="rect884"
         style="opacity:1;vector-effect:none;fill:#ffffff;fill-opacity:1;stroke:#2f75d6;stroke-width:5.99999952;stroke-linecap:butt;stroke-linejoin:miter;stroke-miterlimit:4;stroke-dasharray:none;stroke-dashoffset:0;stroke-opacity:1" />
      <flowRoot
         transform="matrix(2.1742188,-0.58258018,0.58258018,2.1742188,2897.3536,828.95624)"
         style="font-style:normal;font-variant:normal;font-weight:normal;font-stretch:normal;font-size:6.66666651px;line-height:1.25;font-family:'Cooper Black';-inkscape-font-specification:'Cooper Black, ';letter-spacing:0px;word-spacing:0px;fill:#2f75d6;fill-opacity:1;stroke:none;stroke-width:0.4442634"
         id="flowRoot886"
         xml:space="preserve"><flowRegion
           style="font-style:normal;font-variant:normal;font-weight:normal;font-stretch:normal;font-family:'Cooper Black';-inkscape-font-specification:'Cooper Black, ';fill:#2f75d6;fill-opacity:1;stroke-width:0.4442634"
           id="flowRegion888"><rect
             style="font-style:normal;font-variant:normal;font-weight:normal;font-stretch:normal;font-family:'Cooper Black';-inkscape-font-specification:'Cooper Black, ';fill:#2f75d6;fill-opacity:1;stroke-width:0.4442634"
             y="-333.38095"
             x="-1060.6602"
             height="68.828217"
             width="98.332825"
             id="rect890" /></flowRegion><flowPara
           style="font-style:normal;font-variant:normal;font-weight:bold;font-stretch:normal;font-size:53.33333206px;font-family:Dubai;-inkscape-font-specification:'Dubai Bold';fill:#2f75d6;fill-opacity:1;stroke-width:0.4442634"
           id="flowPara892">Fix</flowPara></flowRoot>      <flowRoot
         xml:space="preserve"
         id="flowRoot908"
         style="font-style:normal;font-variant:normal;font-weight:normal;font-stretch:normal;font-size:6.66666651px;line-height:1.25;font-family:'Cooper Black';-inkscape-font-specification:'Cooper Black, ';letter-spacing:0px;word-spacing:0px;fill:#2f75d6;fill-opacity:1;stroke:none;stroke-width:0.4442634"
         transform="matrix(2.1742188,-0.58258018,0.58258018,2.1742188,2979.9366,896.31847)"><flowRegion
           id="flowRegion904"
           style="font-style:normal;font-variant:normal;font-weight:normal;font-stretch:normal;font-family:'Cooper Black';-inkscape-font-specification:'Cooper Black, ';fill:#2f75d6;fill-opacity:1;stroke-width:0.4442634"><rect
             id="rect902"
             width="98.332825"
             height="68.828217"
             x="-1060.6602"
             y="-333.38095"
             style="font-style:normal;font-variant:normal;font-weight:normal;font-stretch:normal;font-family:'Cooper Black';-inkscape-font-specification:'Cooper Black, ';fill:#2f75d6;fill-opacity:1;stroke-width:0.4442634" /></flowRegion><flowPara
           id="flowPara906"
           style="font-style:normal;font-variant:normal;font-weight:bold;font-stretch:normal;font-size:53.33333206px;font-family:Dubai;-inkscape-font-specification:'Dubai Bold';fill:#2f75d6;fill-opacity:1;stroke-width:0.4442634">It</flowPara></flowRoot>      <path
         inkscape:connector-curvature="0"
         id="path910"
         d="M 431.42818,934.34506 658.70317,873.44691"
         style="fill:#000000;stroke:#000000;stroke-width:10;stroke-linecap:butt;stroke-linejoin:miter;stroke-miterlimit:4;stroke-dasharray:none;stroke-opacity:1" />
      <path
         style="fill:#000000;stroke:#000000;stroke-width:10;stroke-linecap:butt;stroke-linejoin:miter;stroke-miterlimit:4;stroke-dasharray:none;stroke-opacity:1"
         d="m 465.7544,1062.4523 113.63749,-30.4491"
         id="path912"
         inkscape:connector-curvature="0" />
      <path
         inkscape:connector-curvature="0"
         id="path914"
         d="m 454.31231,1019.7498 113.6375,-30.44904"
         style="fill:#000000;stroke:#000000;stroke-width:10;stroke-linecap:butt;stroke-linejoin:miter;stroke-miterlimit:4;stroke-dasharray:none;stroke-opacity:1" />
      <path
         style="fill:#000000;stroke:#000000;stroke-width:10;stroke-linecap:butt;stroke-linejoin:miter;stroke-miterlimit:4;stroke-dasharray:none;stroke-opacity:1"
         d="M 442.87026,977.0475 556.50775,946.59842"
         id="path916"
         inkscape:connector-curvature="0" />
    </g>
    <ellipse
       style="opacity:1;vector-effect:none;fill:#000080;fill-opacity:0;stroke:none;stroke-width:10;stroke-linecap:butt;stroke-linejoin:miter;stroke-miterlimit:4;stroke-dasharray:none;stroke-dashoffset:0;stroke-opacity:1"
       id="path871"
       cx="-85"
       cy="659.51965"
       rx="264"
       ry="255" />
    <ellipse
       style="opacity:1;vector-effect:none;fill:#000080;fill-opacity:0;stroke:none;stroke-width:10;stroke-linecap:butt;stroke-linejoin:miter;stroke-miterlimit:4;stroke-dasharray:none;stroke-dashoffset:0;stroke-opacity:1"
       id="path873"
       cx="1070"
       cy="716.51965"
       rx="75"
       ry="245" />
  </g>
</svg>
